<svg xmlns="http://www.w3.org/2000/svg" xmlns:xlink="http://www.w3.org/1999/xlink" width="25.79" height="25.563" viewBox="0 0 25.79 25.563"><defs><clipPath id="a"><rect width="25.79" height="25.563" fill="#9ca3af"/></clipPath></defs><g clip-path="url(#a)"><path d="M35.671,19.983a10.885,10.885,0,0,0-7.4-2.906,12.723,12.723,0,0,0-2.385.233,10.581,10.581,0,0,0-6.319,3.737,10.639,10.639,0,0,0-2.175,10.162,11.138,11.138,0,0,0,10.872,8.029,10.721,10.721,0,0,0,2.109-.224A10.958,10.958,0,0,0,36.9,35.026,10.723,10.723,0,0,0,39.139,26.2a10.507,10.507,0,0,0-3.468-6.219M23.3,28.412a3.166,3.166,0,1,1,0,6.332h0a3.166,3.166,0,1,1-.007-6.332Zm1.839-2.05q-.1.006-.2.006a3.163,3.163,0,0,1-.137-6.324q.074,0,.147,0a3.163,3.163,0,0,1,.2,6.321m2.933.469h0a1.4,1.4,0,1,1,0,2.807h0a1.4,1.4,0,1,1,0-2.807m3.251,3.112h.013a3.166,3.166,0,1,1-.006,6.332H31.32a3.166,3.166,0,1,1,0-6.332M32.965,27.9a3.166,3.166,0,1,1-.011-6.332h0a3.166,3.166,0,1,1,.02,6.332Z" transform="translate(-15.236 -15.371)" fill="#9ca3af"/><path d="M206.148,32.707c-.82-.238-1.65-.441-2.476-.657a.284.284,0,0,0-.07-.018.06.06,0,0,0-.045.02l0,0a.244.244,0,0,0,.021.022,12.04,12.04,0,0,1,4.556,7.721c.014.084-.006.18.066.266.225-.844.448-1.673.669-2.5a3.938,3.938,0,0,0-2.725-4.848" transform="translate(-183.222 -28.831)" fill="#9ca3af"/><path d="M146.87,206.114c.394.115.783.225,1.175.32a14.334,14.334,0,0,0,1.807.424,3.965,3.965,0,0,0,4.11-2.463c.371-.954.544-1.97.824-2.953a12.465,12.465,0,0,1-7.916,4.672" transform="translate(-132.198 -181.319)" fill="#9ca3af"/><path d="M77.2,0" transform="translate(-69.487)" fill="#9ca3af"/><path d="M40.712.761C39.864.532,39.021.3,38.171.1a3.555,3.555,0,0,0-.831-.1V.25h0V0h0A3.708,3.708,0,0,0,36.2.184a3.89,3.89,0,0,0-2.7,2.767c-.206.717-.39,1.44-.584,2.16a12.521,12.521,0,0,1,7.8-4.35" transform="translate(-29.629 0)" fill="#9ca3af"/><path d="M.721,147.954c-.042.02-.039.059-.048.093-.179.667-.361,1.333-.538,2a3.944,3.944,0,0,0,2.456,4.733c.562.207,1.153.319,1.731.477.278.076.558.147.837.22a12.353,12.353,0,0,1-4.438-7.524" transform="translate(0 -133.174)" fill="#9ca3af"/></g></svg>