<svg xmlns="http://www.w3.org/2000/svg" xmlns:xlink="http://www.w3.org/1999/xlink" width="460.41" height="213.772" viewBox="0 0 460.41 213.772"><defs><clipPath id="a"><rect width="460.41" height="213.772" fill="none"/></clipPath><clipPath id="c"><rect width="8.439" height="78.176" fill="none"/></clipPath><clipPath id="d"><rect width="15.387" height="17.928" fill="none"/></clipPath><clipPath id="e"><rect width="10.781" height="3.141" fill="none"/></clipPath><clipPath id="f"><rect width="38.571" height="70.584" fill="none"/></clipPath><clipPath id="g"><rect width="60.583" height="70.584" fill="none"/></clipPath><clipPath id="l"><rect width="30.454" height="20.694" fill="none"/></clipPath><clipPath id="m"><rect width="60.579" height="38.247" fill="none"/></clipPath><clipPath id="n"><rect width="15.385" height="17.928" fill="none"/></clipPath><clipPath id="p"><rect width="15.388" height="11.919" fill="none"/></clipPath><clipPath id="q"><rect width="15.388" height="17.928" fill="none"/></clipPath><clipPath id="r"><rect width="120.846" height="140.793" fill="none"/></clipPath><clipPath id="s"><rect width="60.579" height="70.584" fill="none"/></clipPath><clipPath id="t"><rect width="30.451" height="35.477" fill="none"/></clipPath><clipPath id="u"><rect width="60.583" height="38.247" fill="none"/></clipPath><clipPath id="w"><rect width="15.385" height="11.919" fill="none"/></clipPath><clipPath id="ae"><rect width="120.847" height="140.793" fill="none"/></clipPath><clipPath id="af"><rect width="30.455" height="35.477" fill="none"/></clipPath><clipPath id="ah"><rect width="10.78" height="3.141" fill="none"/></clipPath><clipPath id="ak"><rect width="120.843" height="108.456" fill="none"/></clipPath><clipPath id="al"><rect width="15.384" height="17.928" fill="none"/></clipPath><clipPath id="an"><rect width="120.843" height="140.793" fill="none"/></clipPath><clipPath id="ap"><rect width="60.583" height="70.583" fill="none"/></clipPath><clipPath id="ar"><rect width="30.452" height="35.481" fill="none"/></clipPath><clipPath id="at"><rect width="30.455" height="20.694" fill="none"/></clipPath><clipPath id="ay"><rect width="3.844" height="3.882" fill="none"/></clipPath><clipPath id="az"><rect width="3.847" height="3.882" fill="none"/></clipPath><clipPath id="ba"><rect width="3.847" height="3.879" fill="none"/></clipPath><clipPath id="be"><rect width="3.844" height="3.878" fill="none"/></clipPath><clipPath id="bj"><rect width="3.847" height="3.878" fill="none"/></clipPath><clipPath id="br"><rect width="3.843" height="3.878" fill="none"/></clipPath><clipPath id="bs"><rect width="2.568" height="0.505" fill="none"/></clipPath><clipPath id="bt"><rect width="3.843" height="3.882" fill="none"/></clipPath><clipPath id="cb"><rect width="3.846" height="3.882" fill="none"/></clipPath><clipPath id="cc"><rect width="3.846" height="3.879" fill="none"/></clipPath><clipPath id="cd"><rect width="3.846" height="3.878" fill="none"/></clipPath><clipPath id="cg"><rect width="3.843" height="3.879" fill="none"/></clipPath><clipPath id="cl"><rect width="3.849" height="3.879" fill="none"/></clipPath><clipPath id="cm"><rect width="3.843" height="3.883" fill="none"/></clipPath><clipPath id="cw"><rect width="3.849" height="3.878" fill="none"/></clipPath></defs><g opacity="0.08"><g clip-path="url(#a)"><g transform="translate(0 0)"><g clip-path="url(#a)"><g opacity="0.852"><g clip-path="url(#c)"><path d="M3.533,0H2.89L8.122,3.044V73.07L0,77.8v.375L8.362,73.3l.078-.046V2.857Z" transform="translate(0 0.001)" fill="#808285"/></g></g><g transform="translate(0.587 64.201)" opacity="0.967"><g clip-path="url(#d)"><path d="M9.72,239.777l-7.693-4.483v-8.961l7.693-4.483,7.694,4.483v8.961Zm-7.372-4.671,7.372,4.3,7.373-4.3v-8.588l-7.373-4.3-7.372,4.3Z" transform="translate(-2.027 -221.849)" fill="#808285"/></g></g><g transform="translate(2.889)" opacity="0.716"><g clip-path="url(#e)"><path d="M20.123,0,15.375,2.765,10.628,0H9.985L15.375,3.14,20.766,0Z" transform="translate(-9.985 0.001)" fill="#808285"/></g></g><g transform="translate(0 2.766)" opacity="0.841"><g clip-path="url(#f)"><path d="M8.28,9.557,0,14.383v.371L8.28,9.932,38.25,27.39V62.309L8.28,79.766,0,74.944v.375l8.2,4.775.081.046,30.21-17.6.081-.046V27.2Z" transform="translate(0 -9.557)" fill="#808285"/></g></g><g transform="translate(38.25 37.873)" opacity="0.994"><g clip-path="url(#g)"><path d="M162.469,201.455l-30.291-17.648v-35.29l30.291-17.645,30.291,17.645v35.29ZM132.5,183.62l29.97,17.462,29.97-17.462V148.7l-29.97-17.458L132.5,148.7Z" transform="translate(-132.177 -130.872)" fill="#808285"/></g></g><g transform="translate(38.25 37.873)" opacity="0.939"><g clip-path="url(#g)"><path d="M162.469,201.455l-30.291-17.648v-35.29l30.291-17.645,30.291,17.645v35.29ZM132.5,183.62l29.97,17.462,29.97-17.462V148.7l-29.97-17.458L132.5,148.7Z" transform="translate(-132.177 -130.872)" fill="#808285"/></g></g><g transform="translate(63.151)" opacity="0.977"><g clip-path="url(#e)"><path d="M228.367,0l-4.752,2.766L218.868,0h-.643l5.39,3.141L229.006,0Z" transform="translate(-218.225 0.001)" fill="#808285"/></g></g><g transform="translate(38.25 2.766)" opacity="0.772"><g clip-path="url(#g)"><path d="M162.469,80.141l-.078-.046L132.177,62.5V27.2L162.469,9.557,192.76,27.2V62.5l-.077.046ZM132.5,62.309l29.97,17.458,29.97-17.458V27.39L162.469,9.932,132.5,27.39Z" transform="translate(-132.177 -9.557)" fill="#808285"/></g></g><g transform="translate(63.151)" opacity="0.634"><g clip-path="url(#e)"><path d="M228.367,0l-4.752,2.766L218.868,0h-.643l5.39,3.141L229.006,0Z" transform="translate(-218.225 0.001)" fill="#808285"/></g></g><g transform="translate(113.578)" opacity="0.671"><g clip-path="url(#l)"><path d="M422.613,0V11.636l-14.9,8.683L392.8,11.636V0h-.322V11.823l15.229,8.871,15.225-8.871V0Z" transform="translate(-392.48 0.001)" fill="#808285"/></g></g><g transform="translate(98.516)" opacity="0.946"><g clip-path="url(#m)"><path d="M400.691,0V20.411l-29.97,17.462L340.747,20.411V0h-.318V20.6l30.292,17.648L401.009,20.6V0Z" transform="translate(-340.43 0.001)" fill="#808285"/></g></g><g transform="translate(121.113 64.201)" opacity="0.526"><g clip-path="url(#n)"><path d="M426.211,239.777l-7.694-4.483v-8.961l7.694-4.483,7.69,4.483v8.961Zm-7.372-4.671,7.372,4.3,7.372-4.3v-8.588l-7.372-4.3-7.372,4.3Z" transform="translate(-418.517 -221.849)" fill="#808285"/></g></g><g transform="translate(38.25 2.766)" opacity="0.522"><g clip-path="url(#g)"><path d="M162.469,80.141l-.078-.046L132.177,62.5V27.2L162.469,9.557,192.76,27.2V62.5l-.077.046ZM132.5,62.309l29.97,17.458,29.97-17.458V27.39L162.469,9.932,132.5,27.39Z" transform="translate(-132.177 -9.557)" fill="#808285"/></g></g><g transform="translate(181.375)" opacity="0.896"><g clip-path="url(#p)"><path d="M641.823,0V7.249l-7.372,4.3-7.373-4.3V0h-.321V7.435l7.694,4.483,7.694-4.483V0Z" transform="translate(-626.757 0.001)" fill="#808285"/></g></g><g transform="translate(181.375 64.201)" opacity="0.521"><g clip-path="url(#q)"><path d="M634.451,239.777l-7.694-4.483v-8.961l7.694-4.483,7.694,4.483v8.961Zm-7.373-4.671,7.373,4.3,7.372-4.3v-8.588l-7.372-4.3-7.373,4.3Z" transform="translate(-626.757 -221.849)" fill="#808285"/></g></g><g transform="translate(68.383 37.873)" opacity="0.637"><g clip-path="url(#r)"><path d="M296.727,271.665l-.081-.045L236.3,236.467v-70.4l.082-.045,60.343-35.153.077.045,60.343,35.153v70.4l-.078.049Zm-60.1-35.385,60.1,35.011,60.1-35.011V166.257l-60.1-35.011-60.1,35.011Z" transform="translate(-236.303 -130.872)" fill="#808285"/></g></g><g transform="translate(98.516 2.766)" opacity="0.519"><g clip-path="url(#s)"><path d="M370.721,80.141l-.081-.046L340.429,62.5V27.2L370.721,9.557,401.009,27.2V62.5l-.077.046ZM340.747,62.309l29.974,17.458,29.97-17.458V27.39L370.721,9.932,340.747,27.39Z" transform="translate(-340.429 -9.557)" fill="#808285"/></g></g><g transform="translate(173.844 55.426)" opacity="0.508"><g clip-path="url(#t)"><path d="M615.958,227l-15.225-8.87V200.4l15.225-8.871,15.225,8.871v17.737Zm-14.908-9.057,14.908,8.683,14.9-8.683V200.581l-14.9-8.68-14.908,8.68Z" transform="translate(-600.732 -191.527)" fill="#808285"/></g></g><g transform="translate(219.039)" opacity="0.579"><g clip-path="url(#u)"><path d="M817.172,0V20.411L787.2,37.872l-29.97-17.462V0h-.321V20.6L787.2,38.246l30.213-17.6.078-.049V0Z" transform="translate(-756.91 0.001)" fill="#808285"/></g></g><g transform="translate(158.777 2.766)" opacity="0.986"><g clip-path="url(#g)"><path d="M578.962,80.141l-.081-.046L548.67,62.5V27.2L578.962,9.557,609.253,27.2V62.5l-.081.046Zm-29.97-17.833,29.97,17.458,29.97-17.458V27.39L578.962,9.932,548.991,27.39Z" transform="translate(-548.67 -9.557)" fill="#808285"/></g></g><g transform="translate(121.113)" opacity="0.981"><g clip-path="url(#w)"><path d="M433.583,0V7.249l-7.372,4.3-7.372-4.3V0h-.322V7.435l7.694,4.483,7.69-4.483V0Z" transform="translate(-418.517 0.001)" fill="#808285"/></g></g><g transform="translate(219.039)" opacity="0.97"><g clip-path="url(#u)"><path d="M817.172,0V20.411L787.2,37.872l-29.97-17.462V0h-.321V20.6L787.2,38.246l30.213-17.6.078-.049V0Z" transform="translate(-756.91 0.001)" fill="#808285"/></g></g><g transform="translate(98.516 37.873)" opacity="0.962"><g clip-path="url(#s)"><path d="M370.721,201.455l-30.292-17.648v-35.29l30.292-17.645,30.288,17.645v35.29ZM340.747,183.62l29.974,17.462,29.97-17.462V148.7l-29.97-17.458L340.747,148.7Z" transform="translate(-340.429 -130.872)" fill="#808285"/></g></g><g transform="translate(98.516 37.873)" opacity="0.63"><g clip-path="url(#s)"><path d="M370.721,201.455l-30.292-17.648v-35.29l30.292-17.645,30.288,17.645v35.29ZM340.747,183.62l29.974,17.462,29.97-17.462V148.7l-29.97-17.458L340.747,148.7Z" transform="translate(-340.429 -130.872)" fill="#808285"/></g></g><g transform="translate(173.844 160.742)" opacity="0.839"><g clip-path="url(#t)"><path d="M615.958,590.934l-15.225-8.871v-17.74l15.225-8.866,15.225,8.866v17.74Zm-14.908-9.058,14.908,8.683,14.9-8.683V564.51l-14.9-8.683L601.05,564.51Z" transform="translate(-600.732 -555.457)" fill="#808285"/></g></g><g transform="translate(158.777 143.188)" opacity="0.905"><g clip-path="url(#g)"><path d="M578.962,565.383,548.67,547.738V512.444L578.962,494.8l30.291,17.645v35.294Zm-29.97-17.832,29.97,17.458,29.97-17.458V512.631l-29.97-17.457-29.97,17.457Z" transform="translate(-548.67 -494.799)" fill="#808285"/></g></g><g transform="translate(158.777)" opacity="0.654"><g clip-path="url(#u)"><path d="M608.931,0V20.411l-29.97,17.462-29.97-17.462V0h-.321V20.6l30.291,17.648L609.253,20.6V0Z" transform="translate(-548.67 0.001)" fill="#808285"/></g></g><g transform="translate(243.94)" opacity="0.957"><g clip-path="url(#e)"><path d="M853.1,0l-4.751,2.766L843.6,0h-.642l5.391,3.141L853.738,0Z" transform="translate(-842.957 0.001)" fill="#808285"/></g></g><g transform="translate(188.906 37.873)" opacity="0.947"><g clip-path="url(#ae)"><path d="M713.206,271.665l-.082-.045-60.343-35.153v-70.4l.082-.045,60.343-35.153.081.045L773.63,166.07v70.4l-.081.049Zm-60.1-35.385,60.1,35.011,60.1-35.011V166.257l-60.1-35.011-60.1,35.011Z" transform="translate(-652.782 -130.872)" fill="#808285"/></g></g><g transform="translate(294.366 55.426)" opacity="0.809"><g clip-path="url(#af)"><path d="M1032.438,227l-15.226-8.87V200.4l15.226-8.871,15.228,8.871v17.737Zm-14.9-9.057,14.9,8.683,14.907-8.683V200.581l-14.907-8.68-14.9,8.68Z" transform="translate(-1017.212 -191.527)" fill="#808285"/></g></g><g transform="translate(234.105 160.742)" opacity="0.553"><g clip-path="url(#t)"><path d="M824.2,590.934l-15.225-8.871v-17.74l15.225-8.866,15.226,8.866v17.74Zm-14.9-9.058,14.9,8.683,14.9-8.683V564.51l-14.9-8.683-14.9,8.683Z" transform="translate(-808.972 -555.457)" fill="#808285"/></g></g><g transform="translate(304.203)" opacity="0.954"><g clip-path="url(#ah)"><path d="M1061.339,0l-4.751,2.766L1051.84,0h-.642l5.391,3.141L1061.978,0Z" transform="translate(-1051.198 0.001)" fill="#808285"/></g></g><g transform="translate(339.566)" opacity="0.875"><g clip-path="url(#u)"><path d="M1233.661,0V20.411l-29.97,17.462-29.97-17.462V0h-.322V20.6l30.292,17.648L1233.983,20.6V0Z" transform="translate(-1173.4 0.001)" fill="#808285"/></g></g><g transform="translate(219.039)" opacity="0.505"><g clip-path="url(#u)"><path d="M817.172,0V20.411L787.2,37.872l-29.97-17.462V0h-.321V20.6L787.2,38.246l30.213-17.6.078-.049V0Z" transform="translate(-756.91 0.001)" fill="#808285"/></g></g><g transform="translate(249.172)" opacity="0.852"><g clip-path="url(#ak)"><path d="M976.33,0l5.228,3.045V73.07l-60.1,35.011-60.1-35.011V3.044L866.584,0h-.64l-4.833,2.812-.078.046v70.4l60.343,35.153.078.045L981.8,73.3l.081-.046V2.857L976.969,0Z" transform="translate(-861.035 0.001)" fill="#808285"/></g></g><g transform="translate(362.164 64.201)" opacity="0.61"><g clip-path="url(#al)"><path d="M1259.183,239.777l-7.693-4.483v-8.961l7.693-4.483,7.691,4.483v8.961Zm-7.372-4.671,7.372,4.3,7.373-4.3v-8.588l-7.373-4.3-7.372,4.3Z" transform="translate(-1251.49 -221.849)" fill="#808285"/></g></g><g transform="translate(219.039 37.873)" opacity="0.618"><g clip-path="url(#g)"><path d="M787.2,201.455l-30.292-17.648v-35.29L787.2,130.872l.081.045,30.211,17.6v35.29l-.078.049ZM757.23,183.62l29.97,17.462,29.97-17.462V148.7L787.2,131.246,757.23,148.7Z" transform="translate(-756.909 -130.872)" fill="#808285"/></g></g><g transform="translate(249.172 37.873)" opacity="0.876"><g clip-path="url(#an)"><path d="M921.456,271.665l-.078-.045-60.343-35.153v-70.4l.077-.045,60.344-35.153.081.045L981.88,166.07v70.4l-.081.049Zm-60.1-35.385,60.1,35.011,60.1-35.011V166.257l-60.1-35.011-60.1,35.011Z" transform="translate(-861.035 -130.872)" fill="#808285"/></g></g><g transform="translate(294.366 160.742)" opacity="0.585"><g clip-path="url(#af)"><path d="M1032.438,590.934l-15.226-8.871v-17.74l15.226-8.866,15.228,8.866v17.74Zm-14.9-9.058,14.9,8.683,14.907-8.683V564.51l-14.907-8.683-14.9,8.683Z" transform="translate(-1017.212 -555.457)" fill="#808285"/></g></g><g transform="translate(219.039 108.082)" opacity="0.543"><g clip-path="url(#ap)"><path d="M787.2,444.07l-.082-.046-30.21-17.6V391.131L787.2,373.486l.081.046,30.211,17.6v35.294l-.078.046Zm-29.97-17.832,29.97,17.457,29.97-17.457V391.318L787.2,373.86l-29.97,17.458Z" transform="translate(-756.909 -373.486)" fill="#808285"/></g></g><g transform="translate(399.827)" opacity="0.847"><g clip-path="url(#u)"><path d="M1441.9,0V20.411l-29.974,17.462-29.97-17.462V0h-.322V20.6l30.292,17.648L1442.223,20.6V0Z" transform="translate(-1381.64 0.001)" fill="#808285"/></g></g><g transform="translate(354.631 20.32)" opacity="0.777"><g clip-path="url(#ar)"><path d="M1240.689,105.695l-15.225-8.874V79.085l15.225-8.871,15.225,8.871V96.821Zm-14.907-9.061,14.907,8.687,14.9-8.687V79.271l-14.9-8.682-14.907,8.682Z" transform="translate(-1225.463 -70.214)" fill="#808285"/></g></g><g transform="translate(364.467)" opacity="0.619"><g clip-path="url(#ah)"><path d="M1269.586,0l-4.748,2.766L1260.087,0h-.64l5.391,3.141L1270.229,0Z" transform="translate(-1259.448 0.001)" fill="#808285"/></g></g><g transform="translate(414.893)" opacity="0.653"><g clip-path="url(#at)"><path d="M1463.832,0V11.636l-14.9,8.683-14.9-8.683V0h-.322V11.823l15.225,8.871,15.229-8.871V0Z" transform="translate(-1433.702 0.001)" fill="#808285"/></g></g><g transform="translate(399.827)" opacity="0.613"><g clip-path="url(#u)"><path d="M1441.9,0V20.411l-29.974,17.462-29.97-17.462V0h-.322V20.6l30.292,17.648L1442.223,20.6V0Z" transform="translate(-1381.64 0.001)" fill="#808285"/></g></g><g transform="translate(279.301 37.873)" opacity="0.951"><g clip-path="url(#g)"><path d="M995.442,201.455,965.15,183.807v-35.29l30.292-17.645.081.045,30.211,17.6v35.29l-.078.049Zm-29.97-17.835,29.97,17.462,29.973-17.462V148.7l-29.973-17.458L965.471,148.7Z" transform="translate(-965.15 -130.872)" fill="#808285"/></g></g><g transform="translate(399.827 108.082)" opacity="0.626"><g clip-path="url(#ap)"><path d="M1411.932,444.07l-.081-.046-30.211-17.6V391.131l30.292-17.645,30.291,17.645v35.294l-.077.046Zm-29.97-17.832,29.97,17.457,29.974-17.457V391.318l-29.974-17.458-29.97,17.458Z" transform="translate(-1381.64 -373.486)" fill="#808285"/></g></g><g transform="translate(279.301 108.082)" opacity="0.67"><g clip-path="url(#ap)"><path d="M995.442,444.07l-.078-.046-30.213-17.6V391.131l30.292-17.645.081.046,30.211,17.6v35.294l-.078.046Zm-29.97-17.832,29.97,17.457,29.973-17.457V391.318L995.442,373.86l-29.97,17.458Z" transform="translate(-965.15 -373.486)" fill="#808285"/></g></g><g transform="translate(6.358 79.998)" opacity="0.687"><g clip-path="url(#ay)"><path d="M25.816,278.382a1.922,1.922,0,1,1-1.922-1.943,1.93,1.93,0,0,1,1.922,1.943" transform="translate(-21.972 -276.439)" fill="#808285"/></g></g><g transform="translate(36.488 53.67)" opacity="0.975"><g clip-path="url(#az)"><path d="M129.935,187.4a1.923,1.923,0,1,1-1.922-1.942,1.932,1.932,0,0,1,1.922,1.942" transform="translate(-126.088 -185.462)" fill="#808285"/></g></g><g transform="translate(66.62 1.014)" opacity="0.906"><g clip-path="url(#ba)"><path d="M234.06,5.442a1.923,1.923,0,1,1-1.925-1.94,1.933,1.933,0,0,1,1.925,1.94" transform="translate(-230.213 -3.502)" fill="#808285"/></g></g><g transform="translate(66.62 71.223)" opacity="0.862"><g clip-path="url(#ba)"><path d="M234.06,248.056a1.923,1.923,0,1,1-1.925-1.939,1.931,1.931,0,0,1,1.925,1.939" transform="translate(-230.213 -246.117)" fill="#808285"/></g></g><g transform="translate(111.816 9.788)" opacity="0.725"><g clip-path="url(#az)"><path d="M390.237,35.768a1.923,1.923,0,1,1-1.922-1.943,1.932,1.932,0,0,1,1.922,1.943" transform="translate(-386.39 -33.825)" fill="#808285"/></g></g><g transform="translate(141.948 9.788)" opacity="0.544"><g clip-path="url(#az)"><path d="M494.362,35.768a1.923,1.923,0,1,1-1.925-1.943,1.933,1.933,0,0,1,1.925,1.943" transform="translate(-490.515 -33.825)" fill="#808285"/></g></g><g transform="translate(96.752 18.567)" opacity="0.856"><g clip-path="url(#be)"><path d="M338.182,66.1a1.922,1.922,0,1,1-1.922-1.939,1.93,1.93,0,0,1,1.922,1.939" transform="translate(-334.338 -64.16)" fill="#808285"/></g></g><g transform="translate(126.882 79.998)" opacity="0.691"><g clip-path="url(#az)"><path d="M442.3,278.382a1.923,1.923,0,1,1-1.922-1.943,1.932,1.932,0,0,1,1.922,1.943" transform="translate(-438.453 -276.439)" fill="#808285"/></g></g><g transform="translate(66.62 71.223)" opacity="0.617"><g clip-path="url(#ba)"><path d="M234.06,248.056a1.923,1.923,0,1,1-1.925-1.939,1.931,1.931,0,0,1,1.925,1.939" transform="translate(-230.213 -246.117)" fill="#808285"/></g></g><g transform="translate(96.749 53.67)" opacity="0.512"><g clip-path="url(#az)"><path d="M338.173,187.4a1.924,1.924,0,1,1-1.922-1.942,1.932,1.932,0,0,1,1.922,1.942" transform="translate(-334.326 -185.462)" fill="#808285"/></g></g><g transform="translate(187.144 9.788)" opacity="0.871"><g clip-path="url(#az)"><path d="M650.539,35.768a1.923,1.923,0,1,1-1.922-1.943,1.932,1.932,0,0,1,1.922,1.943" transform="translate(-646.692 -33.825)" fill="#808285"/></g></g><g transform="translate(194.679 66.836)" opacity="0.663"><g clip-path="url(#bj)"><path d="M676.577,232.9a1.923,1.923,0,1,1-1.925-1.939,1.932,1.932,0,0,1,1.925,1.939" transform="translate(-672.73 -230.957)" fill="#808285"/></g></g><g transform="translate(126.882 176.539)" opacity="0.664"><g clip-path="url(#bj)"><path d="M442.3,611.986a1.923,1.923,0,1,1-1.922-1.939,1.932,1.932,0,0,1,1.922,1.939" transform="translate(-438.453 -610.047)" fill="#808285"/></g></g><g transform="translate(187.144 141.436)" opacity="0.954"><g clip-path="url(#bj)"><path d="M650.539,490.685a1.923,1.923,0,1,1-1.922-1.939,1.931,1.931,0,0,1,1.922,1.939" transform="translate(-646.692 -488.745)" fill="#808285"/></g></g><g transform="translate(66.62 71.223)" opacity="0.641"><g clip-path="url(#ba)"><path d="M234.06,248.056a1.923,1.923,0,1,1-1.925-1.939,1.931,1.931,0,0,1,1.925,1.939" transform="translate(-230.213 -246.117)" fill="#808285"/></g></g><g transform="translate(126.882 71.223)" opacity="0.525"><g clip-path="url(#ba)"><path d="M442.3,248.056a1.923,1.923,0,1,1-1.922-1.939,1.93,1.93,0,0,1,1.922,1.939" transform="translate(-438.453 -246.117)" fill="#808285"/></g></g><g transform="translate(157.014 53.67)" opacity="0.761"><g clip-path="url(#az)"><path d="M546.424,187.4a1.924,1.924,0,1,1-1.925-1.942,1.933,1.933,0,0,1,1.925,1.942" transform="translate(-542.577 -185.462)" fill="#808285"/></g></g><g transform="translate(157.014 18.567)" opacity="0.617"><g clip-path="url(#bj)"><path d="M546.424,66.1A1.924,1.924,0,1,1,544.5,64.16a1.933,1.933,0,0,1,1.925,1.939" transform="translate(-542.577 -64.16)" fill="#808285"/></g></g><g transform="translate(202.21 62.448)" opacity="0.503"><g clip-path="url(#ba)"><path d="M702.6,217.734a1.923,1.923,0,1,1-1.922-1.94,1.932,1.932,0,0,1,1.922,1.94" transform="translate(-698.755 -215.794)" fill="#808285"/></g></g><g transform="translate(277.542 18.567)" opacity="0.907"><g clip-path="url(#br)"><path d="M962.913,66.1a1.922,1.922,0,1,1-1.922-1.939,1.932,1.932,0,0,1,1.922,1.939" transform="translate(-959.07 -64.16)" fill="#808285"/></g></g><g transform="translate(119.99)" opacity="0.6"><g clip-path="url(#bs)"><path d="M414.635,0A1.893,1.893,0,0,0,415.918.5,1.9,1.9,0,0,0,417.2,0Z" transform="translate(-414.635 0.001)" fill="#808285"/></g></g><g transform="translate(247.409 36.117)" opacity="0.6"><g clip-path="url(#bt)"><path d="M858.788,126.747a1.922,1.922,0,1,1-1.922-1.942,1.93,1.93,0,0,1,1.922,1.942" transform="translate(-854.945 -124.805)" fill="#808285"/></g></g><g transform="translate(157.014 53.67)" opacity="0.661"><g clip-path="url(#az)"><path d="M546.424,187.4a1.924,1.924,0,1,1-1.925-1.942,1.933,1.933,0,0,1,1.925,1.942" transform="translate(-542.577 -185.462)" fill="#808285"/></g></g><g transform="translate(202.21 185.317)" opacity="0.579"><g clip-path="url(#ba)"><path d="M702.6,642.319a1.923,1.923,0,1,1-1.922-1.94,1.932,1.932,0,0,1,1.922,1.94" transform="translate(-698.755 -640.379)" fill="#808285"/></g></g><g transform="translate(187.144 158.986)" opacity="0.928"><g clip-path="url(#az)"><path d="M650.539,551.329a1.923,1.923,0,1,1-1.922-1.939,1.932,1.932,0,0,1,1.922,1.939" transform="translate(-646.692 -549.39)" fill="#808285"/></g></g><g transform="translate(172.081 167.761)" opacity="0.633"><g clip-path="url(#ay)"><path d="M598.484,581.654a1.922,1.922,0,1,1-1.922-1.942,1.93,1.93,0,0,1,1.922,1.942" transform="translate(-594.64 -579.712)" fill="#808285"/></g></g><g transform="translate(157.014 194.092)" opacity="0.694"><g clip-path="url(#ba)"><path d="M546.424,672.641A1.924,1.924,0,1,1,544.5,670.7a1.933,1.933,0,0,1,1.925,1.939" transform="translate(-542.577 -670.702)" fill="#808285"/></g></g><g transform="translate(187.144 36.117)" opacity="0.771"><g clip-path="url(#az)"><path d="M650.539,126.747a1.923,1.923,0,1,1-1.922-1.942,1.932,1.932,0,0,1,1.922,1.942" transform="translate(-646.692 -124.805)" fill="#808285"/></g></g><g transform="translate(217.276 18.567)" opacity="0.843"><g clip-path="url(#bj)"><path d="M754.665,66.1a1.924,1.924,0,1,1-1.926-1.939,1.933,1.933,0,0,1,1.926,1.939" transform="translate(-750.817 -64.16)" fill="#808285"/></g></g><g transform="translate(322.738 79.998)" opacity="0.992"><g clip-path="url(#cb)"><path d="M1119.094,278.382a1.923,1.923,0,1,1-1.925-1.943,1.932,1.932,0,0,1,1.925,1.943" transform="translate(-1115.248 -276.439)" fill="#808285"/></g></g><g transform="translate(322.738 62.448)" opacity="0.961"><g clip-path="url(#cc)"><path d="M1119.094,217.734a1.923,1.923,0,1,1-1.925-1.94,1.933,1.933,0,0,1,1.925,1.94" transform="translate(-1115.248 -215.794)" fill="#808285"/></g></g><g transform="translate(398.065 18.567)" opacity="0.684"><g clip-path="url(#cd)"><path d="M1379.4,66.1a1.923,1.923,0,1,1-1.925-1.939A1.933,1.933,0,0,1,1379.4,66.1" transform="translate(-1375.55 -64.16)" fill="#808285"/></g></g><g transform="translate(217.276 18.567)" opacity="0.909"><g clip-path="url(#bj)"><path d="M754.665,66.1a1.924,1.924,0,1,1-1.922-1.939,1.932,1.932,0,0,1,1.922,1.939" transform="translate(-750.817 -64.16)" fill="#808285"/></g></g><g transform="translate(277.542 18.567)" opacity="0.725"><g clip-path="url(#br)"><path d="M962.913,66.1a1.922,1.922,0,1,1-1.922-1.939,1.932,1.932,0,0,1,1.922,1.939" transform="translate(-959.07 -64.16)" fill="#808285"/></g></g><g transform="translate(247.409 71.223)" opacity="0.522"><g clip-path="url(#cg)"><path d="M858.788,248.056a1.922,1.922,0,1,1-1.922-1.939,1.928,1.928,0,0,1,1.922,1.939" transform="translate(-854.945 -246.117)" fill="#808285"/></g></g><g transform="translate(247.409 1.014)" opacity="0.758"><g clip-path="url(#cg)"><path d="M858.788,5.442a1.922,1.922,0,1,1-1.922-1.94,1.93,1.93,0,0,1,1.922,1.94" transform="translate(-854.945 -3.502)" fill="#808285"/></g></g><g transform="translate(360.401 75.611)" opacity="0.567"><g clip-path="url(#cb)"><path d="M1249.245,263.222a1.924,1.924,0,1,1-1.926-1.943,1.933,1.933,0,0,1,1.926,1.943" transform="translate(-1245.398 -261.279)" fill="#808285"/></g></g><g transform="translate(375.467 66.836)" opacity="0.664"><g clip-path="url(#cd)"><path d="M1301.306,232.9a1.924,1.924,0,1,1-1.925-1.939,1.933,1.933,0,0,1,1.925,1.939" transform="translate(-1297.459 -230.957)" fill="#808285"/></g></g><g transform="translate(367.934 62.448)" opacity="0.784"><g clip-path="url(#cc)"><path d="M1275.278,217.734a1.922,1.922,0,1,1-1.922-1.94,1.932,1.932,0,0,1,1.922,1.94" transform="translate(-1271.433 -215.794)" fill="#808285"/></g></g><g transform="translate(307.67 194.092)" opacity="0.869"><g clip-path="url(#cl)"><path d="M1067.029,672.641a1.924,1.924,0,1,1-1.925-1.939,1.933,1.933,0,0,1,1.925,1.939" transform="translate(-1063.181 -670.702)" fill="#808285"/></g></g><g transform="translate(277.542 123.879)" opacity="0.944"><g clip-path="url(#cm)"><path d="M962.913,430.018a1.922,1.922,0,1,1-1.922-1.943,1.932,1.932,0,0,1,1.922,1.943" transform="translate(-959.07 -428.075)" fill="#808285"/></g></g><g transform="translate(247.409 106.33)" opacity="0.849"><g clip-path="url(#cg)"><path d="M858.788,369.371a1.922,1.922,0,1,1-1.922-1.939,1.93,1.93,0,0,1,1.922,1.939" transform="translate(-854.945 -367.432)" fill="#808285"/></g></g><g transform="translate(398.065 18.567)" opacity="0.56"><g clip-path="url(#cd)"><path d="M1379.4,66.1a1.923,1.923,0,1,1-1.922-1.939A1.932,1.932,0,0,1,1379.4,66.1" transform="translate(-1375.55 -64.16)" fill="#808285"/></g></g><g transform="translate(428.199 36.117)" opacity="0.865"><g clip-path="url(#bt)"><path d="M1483.519,126.747a1.922,1.922,0,1,1-1.922-1.942,1.93,1.93,0,0,1,1.922,1.942" transform="translate(-1479.677 -124.805)" fill="#808285"/></g></g><g transform="translate(367.934 53.67)" opacity="0.531"><g clip-path="url(#cb)"><path d="M1275.278,187.4a1.922,1.922,0,1,1-1.922-1.942,1.932,1.932,0,0,1,1.922,1.942" transform="translate(-1271.433 -185.462)" fill="#808285"/></g></g><g transform="translate(413.131 9.788)" opacity="0.723"><g clip-path="url(#cb)"><path d="M1431.46,35.768a1.923,1.923,0,1,1-1.925-1.943,1.933,1.933,0,0,1,1.925,1.943" transform="translate(-1427.612 -33.825)" fill="#808285"/></g></g><g transform="translate(443.264 9.788)" opacity="0.588"><g clip-path="url(#bt)"><path d="M1535.581,35.768a1.922,1.922,0,1,1-1.922-1.943,1.932,1.932,0,0,1,1.922,1.943" transform="translate(-1531.738 -33.825)" fill="#808285"/></g></g><g transform="translate(277.542 88.777)" opacity="0.886"><g clip-path="url(#br)"><path d="M962.913,308.714a1.922,1.922,0,1,1-1.922-1.94,1.932,1.932,0,0,1,1.922,1.94" transform="translate(-959.07 -306.774)" fill="#808285"/></g></g><g transform="translate(337.803 88.777)" opacity="0.588"><g clip-path="url(#br)"><path d="M1171.152,308.714a1.922,1.922,0,1,1-1.921-1.94,1.929,1.929,0,0,1,1.921,1.94" transform="translate(-1167.309 -306.774)" fill="#808285"/></g></g><g transform="translate(428.199 106.33)" opacity="0.975"><g clip-path="url(#cg)"><path d="M1483.519,369.371a1.922,1.922,0,1,1-1.922-1.939,1.93,1.93,0,0,1,1.922,1.939" transform="translate(-1479.677 -367.432)" fill="#808285"/></g></g><g transform="translate(307.67 176.539)" opacity="0.668"><g clip-path="url(#cw)"><path d="M1067.029,611.986a1.924,1.924,0,1,1-1.925-1.939,1.933,1.933,0,0,1,1.925,1.939" transform="translate(-1063.181 -610.047)" fill="#808285"/></g></g><g transform="translate(307.67 106.33)" opacity="0.779"><g clip-path="url(#cl)"><path d="M1067.029,369.371a1.924,1.924,0,1,1-1.925-1.939,1.933,1.933,0,0,1,1.925,1.939" transform="translate(-1063.181 -367.432)" fill="#808285"/></g></g></g></g></g></g></svg>