<svg xmlns="http://www.w3.org/2000/svg" xmlns:xlink="http://www.w3.org/1999/xlink" width="308.754" height="165.661" viewBox="0 0 308.754 165.661"><defs><clipPath id="a"><rect width="53.948" height="46.981" fill="#e5e7eb"/></clipPath><clipPath id="c"><rect width="53.944" height="46.981" fill="#e5e7eb"/></clipPath><clipPath id="d"><rect width="53.947" height="46.981" fill="#e5e7eb"/></clipPath><clipPath id="e"><rect width="24.087" height="46.984" fill="#e5e7eb"/></clipPath><clipPath id="f"><rect width="53.948" height="46.984" fill="#e5e7eb"/></clipPath><clipPath id="g"><rect width="53.944" height="46.984" fill="#e5e7eb"/></clipPath><clipPath id="i"><rect width="53.948" height="46.985" fill="#e5e7eb"/></clipPath><clipPath id="k"><rect width="53.944" height="46.985" fill="#e5e7eb"/></clipPath><clipPath id="l"><rect width="24.087" height="46.982" fill="#e5e7eb"/></clipPath><clipPath id="m"><rect width="53.948" height="46.982" fill="#e5e7eb"/></clipPath><clipPath id="n"><rect width="53.944" height="46.982" fill="#e5e7eb"/></clipPath><clipPath id="x"><rect width="53.948" height="23.728" fill="#e5e7eb"/></clipPath><clipPath id="z"><rect width="53.944" height="23.728" fill="#e5e7eb"/></clipPath><clipPath id="aa"><rect width="53.947" height="23.728" fill="#e5e7eb"/></clipPath><clipPath id="ab"><rect width="4.763" height="4.792" fill="#e5e7eb"/></clipPath><clipPath id="ac"><rect width="5.189" height="5.221" fill="#e5e7eb"/></clipPath><clipPath id="ad"><rect width="5.173" height="5.206" fill="#e5e7eb"/></clipPath><clipPath id="ae"><rect width="5.732" height="5.763" fill="#e5e7eb"/></clipPath><clipPath id="af"><rect width="3.858" height="3.881" fill="#e5e7eb"/></clipPath><clipPath id="ag"><rect width="4.199" height="4.221" fill="#e5e7eb"/></clipPath><clipPath id="ah"><rect width="4.926" height="4.955" fill="#e5e7eb"/></clipPath><clipPath id="ai"><rect width="5.392" height="5.424" fill="#e5e7eb"/></clipPath><clipPath id="aj"><rect width="4.048" height="4.071" fill="#e5e7eb"/></clipPath><clipPath id="ak"><rect width="4.725" height="4.75" fill="#e5e7eb"/></clipPath><clipPath id="al"><rect width="5.388" height="5.42" fill="#e5e7eb"/></clipPath><clipPath id="am"><rect width="5.126" height="5.157" fill="#e5e7eb"/></clipPath><clipPath id="an"><rect width="5.35" height="5.379" fill="#e5e7eb"/></clipPath><clipPath id="ao"><rect width="4.542" height="4.57" fill="#e5e7eb"/></clipPath><clipPath id="ap"><rect width="5.093" height="5.122" fill="#e5e7eb"/></clipPath><clipPath id="aq"><rect width="4.058" height="4.082" fill="#e5e7eb"/></clipPath><clipPath id="ar"><rect width="5.286" height="5.315" fill="#e5e7eb"/></clipPath><clipPath id="as"><rect width="5.212" height="5.244" fill="#e5e7eb"/></clipPath><clipPath id="at"><rect width="4.993" height="5.026" fill="#e5e7eb"/></clipPath><clipPath id="au"><rect width="5.208" height="5.241" fill="#e5e7eb"/></clipPath><clipPath id="av"><rect width="5.52" height="5.552" fill="#e5e7eb"/></clipPath><clipPath id="aw"><rect width="4.885" height="4.911" fill="#e5e7eb"/></clipPath><clipPath id="ax"><rect width="4.689" height="2.611" fill="#e5e7eb"/></clipPath><clipPath id="ay"><rect width="4.898" height="2.717" fill="#e5e7eb"/></clipPath><clipPath id="az"><rect width="5.398" height="2.951" fill="#e5e7eb"/></clipPath></defs><g transform="translate(0.002 -0.084)"><g transform="translate(-0.002 0.084)" opacity="0.67"><path d="M0,17.716v.5H23.47l13.2,23L23.47,64.2H0V64.7H23.752L37.238,41.212l-13.485-23.5Z" transform="translate(0.001 98.657)" fill="#e5e7eb"/><path d="M50.195,64.7H23.224L9.732,41.212l13.492-23.5H50.195l13.485,23.5Zm-26.688-.5H49.912l13.2-22.99-13.2-23H23.506l-13.2,23Z" transform="translate(54.195 98.656)" fill="#e5e7eb"/><path d="M62.463,64.7H35.5L22.007,41.212,35.5,17.716H62.463l13.492,23.5Zm-26.682-.5H62.187l13.2-22.99-13.2-23H35.781l-13.2,23Z" transform="translate(122.551 98.656)" fill="#e5e7eb"/><path d="M44.057,61.161H17.086L3.594,37.664l13.492-23.49H44.057l13.485,23.49Zm-26.688-.5H43.774l13.2-23-13.2-22.99H17.368l-13.2,22.99Z" transform="translate(20.015 78.938)" fill="#e5e7eb"/><path d="M56.326,61.161H29.355L15.87,37.664l13.485-23.49H56.326l13.485,23.49Zm-26.688-.5H56.044l13.2-23-13.2-22.99H29.638l-13.2,22.99Z" transform="translate(88.376 78.938)" fill="#e5e7eb"/><path d="M68.608,61.161H41.637l-13.492-23.5,13.492-23.49H68.608l13.485,23.49Zm-26.688-.5H68.325l13.2-23-13.2-22.99H41.919l-13.2,22.99Z" transform="translate(156.731 78.938)" fill="#e5e7eb"/><path d="M0,10.634v.5H23.47l13.2,23-13.2,23H0v.493H23.752L37.238,34.13l-13.485-23.5Z" transform="translate(0.001 59.22)" fill="#e5e7eb"/><path d="M50.195,57.62H23.224L9.732,34.13l13.492-23.5H50.195L63.68,34.13Zm-26.688-.5H49.912l13.2-22.99-13.2-23H23.506l-13.2,23Z" transform="translate(54.195 59.219)" fill="#e5e7eb"/><path d="M62.463,57.62H35.5L22.007,34.13,35.5,10.634H62.463l13.492,23.5Zm-26.682-.5H62.187l13.2-22.99-13.2-23H35.781l-13.2,23Z" transform="translate(122.551 59.219)" fill="#e5e7eb"/><path d="M68.608,54.079H41.637L28.145,30.589l13.492-23.5H68.608l13.485,23.5Zm-26.688-.5H68.325l13.2-22.99-13.2-23H41.919l-13.2,23Z" transform="translate(156.731 39.5)" fill="#e5e7eb"/><path d="M0,3.553v.5H23.47l13.2,22.99-13.2,23H0v.493H23.752l13.485-23.49L23.752,3.553Z" transform="translate(0.001 19.787)" fill="#e5e7eb"/><path d="M28.717,23.507l13.2-23H68.326l13.2,23-13.2,23H41.914ZM41.631.011l-13.485,23.5L41.631,47H68.609l13.485-23.49L68.609.011Z" transform="translate(156.737 0.063)" fill="#e5e7eb"/><path d="M36.489,0l.184.315-13.2,22.99H0V23.8H23.752L37.237.315,37.06,0Z" transform="translate(0 0)" fill="#e5e7eb"/><path d="M57.175,0l-.026.046H30.743L30.723,0h-.571l.309.545H57.438L57.74,0Z" transform="translate(167.906 0)" fill="#e5e7eb"/><g transform="translate(0.001 0.002)"><g transform="translate(10.456 116.299)" opacity="0.225"><g clip-path="url(#a)"><path d="M42.055,64.691H15.077L1.592,41.2,15.077,17.7H42.055L55.534,41.2Zm-26.7-.5H41.766l13.2-22.99-13.2-23H15.36l-13.2,23Z" transform="translate(-1.591 -17.706)" fill="#e5e7eb"/></g></g><g transform="translate(91.089 116.299)" opacity="0.92"><g clip-path="url(#a)"><path d="M54.33,64.691H27.359L13.867,41.2,27.359,17.7H54.33L67.815,41.2Zm-26.688-.5H54.047l13.2-22.99-13.2-23H27.641l-13.2,23Z" transform="translate(-13.868 -17.706)" fill="#e5e7eb"/></g></g><g transform="translate(171.725 116.299)" opacity="0.47"><g clip-path="url(#c)"><path d="M66.6,64.691H39.635L26.143,41.2,39.635,17.7H66.6L80.091,41.2Zm-26.682-.5H66.323L79.52,41.2l-13.2-23H39.917l-13.2,23Z" transform="translate(-26.144 -17.706)" fill="#e5e7eb"/></g></g><g transform="translate(252.358 116.299)" opacity="0.458"><g clip-path="url(#d)"><path d="M78.881,64.691H51.91L38.418,41.2,51.91,17.7H78.881L92.366,41.2Zm-26.688-.5H78.6l13.2-22.99-13.2-23H52.192l-13.2,23Z" transform="translate(-38.421 -17.706)" fill="#e5e7eb"/></g></g><g transform="translate(0 93.039)" opacity="0.656"><g clip-path="url(#e)"><path d="M10.6,14.164H0v.5H10.319l13.2,22.99-13.2,23H0v.5H10.6l13.485-23.5Z" transform="translate(-0.001 -14.164)" fill="#e5e7eb"/></g></g><g transform="translate(50.772 93.039)" opacity="0.885"><g clip-path="url(#f)"><path d="M48.192,61.15H21.221L7.729,37.654l13.492-23.49H48.192l13.485,23.49ZM21.5,60.65H47.909l13.2-23-13.2-22.99H21.5L8.3,37.654Z" transform="translate(-7.732 -14.165)" fill="#e5e7eb"/></g></g><g transform="translate(131.409 93.039)" opacity="0.735"><g clip-path="url(#g)"><path d="M60.462,61.15H33.491l-13.485-23.5,13.485-23.49H60.462l13.485,23.49Zm-26.688-.5H60.18l13.2-23-13.2-22.99H33.774l-13.2,22.99Z" transform="translate(-20.002 -14.165)" fill="#e5e7eb"/></g></g><g transform="translate(212.041 93.039)" opacity="0.35"><g clip-path="url(#f)"><path d="M72.743,61.15H45.772L32.28,37.654l13.492-23.49H72.743l13.485,23.49Zm-26.688-.5H72.46l13.2-23-13.2-22.99H46.054l-13.2,22.99Z" transform="translate(-32.285 -14.165)" fill="#e5e7eb"/></g></g><g transform="translate(10.456 69.779)" opacity="0.818"><g clip-path="url(#i)"><path d="M42.055,57.609H15.077L1.592,34.119l13.485-23.5H42.055l13.479,23.5Zm-26.7-.5H41.766l13.2-22.99-13.2-23H15.36l-13.2,23Z" transform="translate(-1.591 -10.623)" fill="#e5e7eb"/></g></g><g transform="translate(91.089 69.779)" opacity="0.824"><g clip-path="url(#i)"><path d="M54.33,57.609H27.359L13.867,34.119l13.492-23.5H54.33l13.485,23.5Zm-26.688-.5H54.047l13.2-22.99-13.2-23H27.641l-13.2,23Z" transform="translate(-13.868 -10.623)" fill="#e5e7eb"/></g></g><g transform="translate(171.725 69.779)" opacity="0.749"><g clip-path="url(#k)"><path d="M66.6,57.609H39.635L26.143,34.119l13.492-23.5H66.6l13.492,23.5Zm-26.682-.5H66.323l13.2-22.99-13.2-23H39.917l-13.2,23Z" transform="translate(-26.144 -10.623)" fill="#e5e7eb"/></g></g><g transform="translate(0 46.522)" opacity="0.615"><g clip-path="url(#l)"><path d="M10.6,7.083H0v.5H10.319l13.2,22.99-13.2,23H0v.493H10.6l13.485-23.49Z" transform="translate(-0.001 -7.083)" fill="#e5e7eb"/></g></g><g transform="translate(50.772 46.522)" opacity="0.977"><g clip-path="url(#m)"><path d="M48.192,54.068H21.221L7.729,30.578l13.492-23.5H48.192l13.485,23.5Zm-26.688-.5H47.909l13.2-22.99-13.2-23H21.5l-13.2,23Z" transform="translate(-7.732 -7.085)" fill="#e5e7eb"/></g></g><g transform="translate(131.409 46.522)" opacity="0.637"><g clip-path="url(#n)"><path d="M60.462,54.068H33.491L20.006,30.578l13.485-23.5H60.462l13.485,23.5Zm-26.688-.5H60.18l13.2-22.99-13.2-23H33.774l-13.2,23Z" transform="translate(-20.002 -7.085)" fill="#e5e7eb"/></g></g><g transform="translate(212.041 46.522)" opacity="0.4"><g clip-path="url(#m)"><path d="M72.743,54.068H45.772L32.28,30.578l13.492-23.5H72.743l13.485,23.5Zm-26.688-.5H72.46l13.2-22.99-13.2-23H46.054l-13.2,23Z" transform="translate(-32.285 -7.085)" fill="#e5e7eb"/></g></g><g transform="translate(10.456 23.263)" opacity="0.559"><g clip-path="url(#a)"><path d="M42.055,50.521H15.077L1.592,27.032,15.077,3.542H42.055l13.479,23.49Zm-26.7-.493H41.766l13.2-23-13.2-22.99H15.36l-13.2,22.99Z" transform="translate(-1.591 -3.539)" fill="#e5e7eb"/></g></g><g transform="translate(91.089 23.263)" opacity="0.513"><g clip-path="url(#a)"><path d="M54.33,50.521H27.359L13.867,27.032,27.359,3.542H54.33l13.485,23.49Zm-26.688-.493H54.047l13.2-23-13.2-22.99H27.641l-13.2,22.99Z" transform="translate(-13.868 -3.539)" fill="#e5e7eb"/></g></g><g transform="translate(171.725 23.263)" opacity="0.889"><g clip-path="url(#c)"><path d="M66.6,50.521H39.635L26.143,27.032,39.635,3.542H66.6l13.492,23.49Zm-26.682-.493H66.323l13.2-23-13.2-22.99H39.917l-13.2,22.99Z" transform="translate(-26.144 -3.539)" fill="#e5e7eb"/></g></g><g transform="translate(252.358 23.263)" opacity="0.292"><g clip-path="url(#d)"><path d="M78.881,50.521H51.91L38.418,27.032,51.91,3.542H78.881l13.485,23.49Zm-26.688-.493H78.6l13.2-23L78.6,4.041H52.192l-13.2,22.99Z" transform="translate(-38.421 -3.539)" fill="#e5e7eb"/></g></g><g transform="translate(0 0.003)" opacity="0.467"><g clip-path="url(#e)"><path d="M10.6,0H0V.5H10.319l13.2,23-13.2,22.99H0v.5H10.6L24.087,23.5Z" transform="translate(-0.001 0)" fill="#e5e7eb"/></g></g><g transform="translate(50.772 0.003)" opacity="0.6"><g clip-path="url(#f)"><path d="M48.192,46.987H21.221L7.729,23.5,21.221,0H48.192L61.677,23.5Zm-26.688-.5H47.909l13.2-22.99L47.909.5H21.5L8.3,23.5Z" transform="translate(-7.732 0.002)" fill="#e5e7eb"/></g></g><g transform="translate(131.409 0.003)" opacity="0.487"><g clip-path="url(#g)"><path d="M60.462,46.987H33.491L20.006,23.5,33.491,0H60.462L73.948,23.5Zm-26.688-.5H60.18l13.2-22.99L60.18.5H33.774l-13.2,23Z" transform="translate(-20.002 0.002)" fill="#e5e7eb"/></g></g><g transform="translate(212.041 0.003)" opacity="0.583"><g clip-path="url(#f)"><path d="M72.743,46.987H45.772L32.28,23.5,45.772,0H72.743L86.228,23.5Zm-26.688-.5H72.46l13.2-22.99L72.46.5H46.054l-13.2,23Z" transform="translate(-32.285 0.002)" fill="#e5e7eb"/></g></g><g transform="translate(10.456)" opacity="0.619"><g clip-path="url(#x)"><path d="M54.831,0l.138.236-13.2,23h-26.4l-13.2-23L2.3,0H1.73L1.592.236l13.485,23.49H42.055L55.54.236,55.4,0Z" transform="translate(-1.592)" fill="#e5e7eb"/></g></g><g transform="translate(91.089)" opacity="0.6"><g clip-path="url(#x)"><path d="M67.107,0l.138.236-13.2,23H27.636l-13.2-23L14.571,0h-.565l-.138.236,13.485,23.49H54.324L67.809.236,67.678,0Z" transform="translate(-13.864)" fill="#e5e7eb"/></g></g><g transform="translate(171.725)" opacity="0.539"><g clip-path="url(#z)"><path d="M79.382,0l.138.236-13.2,23h-26.4l-13.2-23L26.846,0h-.565l-.138.236,13.485,23.49H66.6L80.085.236,79.953,0Z" transform="translate(-26.144)" fill="#e5e7eb"/></g></g><g transform="translate(252.358)" opacity="0.565"><g clip-path="url(#aa)"><path d="M91.657,0,91.8.236l-13.2,23h-26.4l-13.2-23L39.121,0h-.565l-.138.236L51.9,23.726H78.881L92.367.236,92.229,0Z" transform="translate(-38.419)" fill="#e5e7eb"/></g></g><g transform="translate(129.025 160.669)" opacity="0.677"><g clip-path="url(#ab)"><path d="M24.405,26.858a2.381,2.381,0,1,1-2.378-2.4,2.39,2.39,0,0,1,2.378,2.4" transform="translate(-19.64 -24.46)" fill="#e5e7eb"/></g></g><g transform="translate(290.365 160.438)" opacity="0.427"><g clip-path="url(#ac)"><path d="M49.394,27.033A2.595,2.595,0,1,1,46.8,24.425a2.6,2.6,0,0,1,2.595,2.608" transform="translate(-44.202 -24.424)" fill="#e5e7eb"/></g></g><g transform="translate(21.498 113.944)" opacity="0.512"><g clip-path="url(#ad)"><path d="M8.449,19.948a2.588,2.588,0,1,1-2.588-2.6,2.592,2.592,0,0,1,2.588,2.6" transform="translate(-3.272 -17.345)" fill="#e5e7eb"/></g></g><g transform="translate(128.541 113.665)" opacity="0.67"><g clip-path="url(#ae)"><path d="M25.3,20.182a2.867,2.867,0,1,1-2.864-2.877A2.875,2.875,0,0,1,25.3,20.182" transform="translate(-19.573 -17.3)" fill="#e5e7eb"/></g></g><g transform="translate(210.114 161.092)" opacity="0.568"><g clip-path="url(#af)"><path d="M35.844,26.463a1.928,1.928,0,1,1-1.931-1.938,1.936,1.936,0,0,1,1.931,1.938" transform="translate(-31.983 -24.521)" fill="#e5e7eb"/></g></g><g transform="translate(129.593 114.419)" opacity="0.551"><g clip-path="url(#ag)"><path d="M23.926,19.528a2.1,2.1,0,1,1-2.1-2.109,2.1,2.1,0,0,1,2.1,2.109" transform="translate(-19.729 -17.418)" fill="#e5e7eb"/></g></g><g transform="translate(142.573 137.297)" opacity="0.4"><g clip-path="url(#ah)"><path d="M26.631,23.378A2.463,2.463,0,1,1,24.168,20.9a2.471,2.471,0,0,1,2.463,2.476" transform="translate(-21.706 -20.901)" fill="#e5e7eb"/></g></g><g transform="translate(48.078 113.803)" opacity="0.478"><g clip-path="url(#ai)"><path d="M12.712,20.038a2.7,2.7,0,1,1-2.7-2.713,2.707,2.707,0,0,1,2.7,2.713" transform="translate(-7.321 -17.326)" fill="#e5e7eb"/></g></g><g transform="translate(62.094 91.236)" opacity="0.755"><g clip-path="url(#aj)"><path d="M13.5,15.926a2.023,2.023,0,1,1-2.023-2.036A2.031,2.031,0,0,1,13.5,15.926" transform="translate(-9.454 -13.887)" fill="#e5e7eb"/></g></g><g transform="translate(21.723 114.14)" opacity="0.384"><g clip-path="url(#ak)"><path d="M8.03,19.748a2.361,2.361,0,1,1-2.358-2.371A2.369,2.369,0,0,1,8.03,19.748" transform="translate(-3.308 -17.374)" fill="#e5e7eb"/></g></g><g transform="translate(128.714 67.319)" opacity="0.854"><g clip-path="url(#al)"><path d="M24.988,12.961a2.7,2.7,0,1,1-2.7-2.713,2.707,2.707,0,0,1,2.7,2.713" transform="translate(-19.596 -10.251)" fill="#e5e7eb"/></g></g><g transform="translate(209.478 67.451)" opacity="0.782"><g clip-path="url(#am)"><path d="M37.015,12.849a2.562,2.562,0,1,1-2.562-2.581,2.574,2.574,0,0,1,2.562,2.581" transform="translate(-31.888 -10.272)" fill="#e5e7eb"/></g></g><g transform="translate(263.31 113.826)" opacity="0.355"><g clip-path="url(#an)"><path d="M45.433,20.016a2.673,2.673,0,1,1-2.673-2.687,2.68,2.68,0,0,1,2.673,2.687" transform="translate(-40.085 -17.326)" fill="#e5e7eb"/></g></g><g transform="translate(8.185 90.97)" opacity="0.687"><g clip-path="url(#ao)"><path d="M5.786,16.135a2.27,2.27,0,1,1-2.279-2.286,2.286,2.286,0,0,1,2.279,2.286" transform="translate(-1.241 -13.85)" fill="#e5e7eb"/></g></g><g transform="translate(21.255 67.451)" opacity="0.553"><g clip-path="url(#ap)"><path d="M8.327,12.831a2.545,2.545,0,1,1-2.549-2.562,2.558,2.558,0,0,1,2.549,2.562" transform="translate(-3.235 -10.266)" fill="#e5e7eb"/></g></g><g transform="translate(22.057 21.47)" opacity="0.729"><g clip-path="url(#aq)"><path d="M7.417,5.311a2.03,2.03,0,1,1-2.03-2.043,2.034,2.034,0,0,1,2.03,2.043" transform="translate(-3.357 -3.272)" fill="#e5e7eb"/></g></g><g transform="translate(88.731 44.098)" opacity="0.3"><g clip-path="url(#ar)"><path d="M18.8,9.368a2.644,2.644,0,1,1-2.641-2.654A2.649,2.649,0,0,1,18.8,9.368" transform="translate(-13.51 -6.71)" fill="#e5e7eb"/></g></g><g transform="translate(182.748 20.89)" opacity="0.574"><g clip-path="url(#as)"><path d="M33.031,5.8A2.6,2.6,0,1,1,30.423,3.18,2.613,2.613,0,0,1,33.031,5.8" transform="translate(-27.817 -3.181)" fill="#e5e7eb"/></g></g><g transform="translate(290.179 20.999)" opacity="0.582"><g clip-path="url(#at)"><path d="M49.175,5.706a2.5,2.5,0,1,1-2.5-2.509,2.513,2.513,0,0,1,2.5,2.509" transform="translate(-44.178 -3.196)" fill="#e5e7eb"/></g></g><g transform="translate(263.381 67.377)" opacity="0.513"><g clip-path="url(#au)"><path d="M45.306,12.878a2.6,2.6,0,1,1-2.6-2.621,2.611,2.611,0,0,1,2.6,2.621" transform="translate(-40.095 -10.259)" fill="#e5e7eb"/></g></g><g transform="translate(21.04 20.72)" opacity="0.713"><g clip-path="url(#av)"><path d="M8.721,5.933A2.759,2.759,0,1,1,5.962,3.154,2.766,2.766,0,0,1,8.721,5.933" transform="translate(-3.204 -3.156)" fill="#e5e7eb"/></g></g><g transform="translate(48.617 21.04)" opacity="0.287"><g clip-path="url(#aw)"><path d="M12.288,5.66A2.444,2.444,0,1,1,9.845,3.2,2.454,2.454,0,0,1,12.288,5.66" transform="translate(-7.403 -3.204)" fill="#e5e7eb"/></g></g><g transform="translate(142.692)" opacity="0.565"><g clip-path="url(#ax)"><path d="M21.749,0c-.007.085-.026.164-.026.256a2.345,2.345,0,1,0,4.69,0A1.612,1.612,0,0,0,26.387,0Z" transform="translate(-21.724)" fill="#e5e7eb"/></g></g><g transform="translate(303.855)" opacity="0.329"><g clip-path="url(#ay)"><path d="M46.279,0c-.007.085-.02.164-.02.256a2.447,2.447,0,1,0,4.894,0c0-.092-.013-.171-.02-.256Z" transform="translate(-46.254)" fill="#e5e7eb"/></g></g><g transform="translate(88.677)" opacity="0.479"><g clip-path="url(#az)"><path d="M13.526,0C13.52.079,13.5.158,13.5.236a2.7,2.7,0,1,0,5.4,0c0-.079-.02-.158-.026-.236Z" transform="translate(-13.5)" fill="#e5e7eb"/></g></g></g></g></g></svg>