<svg xmlns="http://www.w3.org/2000/svg" width="34" height="36" viewBox="0 0 34 36"><g transform="translate(-435.2 -306)"><g transform="translate(435.2 306)" fill="#fff"><path d="M 17.5 35.49205780029297 C 13.01118278503418 35.36769485473633 8.812309265136719 33.56161880493164 5.626060009002686 30.37455940246582 C 2.320450067520142 27.06936073303223 0.5 22.67466926574707 0.5 17.99999046325684 C 0.5 13.32532024383545 2.320450067520142 8.93064022064209 5.62598991394043 5.625510215759277 C 8.812993049621582 2.438275814056396 13.01268196105957 0.6318911910057068 17.5 0.5069577693939209 L 17.5 35.49205780029297 Z" stroke="none"/><path d="M 17 34.97037124633789 L 17 1.0287264585495 C 12.8349781036377 1.268609404563904 8.953410148620605 3.004986047744751 5.979519844055176 5.979080200195313 C 2.76842999458313 9.189780235290527 1 13.45888996124268 1 17.99999046325684 C 1 22.54110908508301 2.76842999458313 26.81022071838379 5.979660034179688 30.02104949951172 C 8.952793121337891 32.99493408203125 12.83373260498047 34.73101806640625 17 34.97037124633789 M 18 36 L 17.99805068969727 36 L 17.99805068969727 35.99893951416016 C 17.9970703125 35.99893951416016 17.99511909484863 35.99893951416016 17.99463081359863 35.99893951416016 C 13.18896961212158 35.99908828735352 8.67041015625 34.12688064575195 5.272459983825684 30.72806930541992 C 1.872560024261475 27.32859039306641 0 22.808349609375 0 17.99999046325684 C 0 13.191650390625 1.872560024261475 8.671409606933594 5.272459983825684 5.27193021774292 C 8.671879768371582 1.872269988059998 13.19188976287842 0 18 0 L 18 36 Z" stroke="none" fill="#e5e7eb"/></g><path d="M18,36h-.005A18,18,0,0,1,5.272,5.272,17.881,17.881,0,0,1,18,0Z" transform="translate(469.2 342) rotate(180)" fill="#fff"/></g></svg>