<svg xmlns="http://www.w3.org/2000/svg" width="67.24" height="67.24" viewBox="0 0 67.24 67.24"><path d="M15.29,2.816a2,2,0,0,1,3.419,0L32.156,24.962A2,2,0,0,1,30.446,28H3.554a2,2,0,0,1-1.71-3.038Z" transform="translate(16.973 9.62)" fill="#e5e7eb"/><path d="M94.443,30H78.3A2.3,2.3,0,0,0,76,32.3V56.64a.985.985,0,1,0,1.97,0V32.3a.329.329,0,0,1,.328-.328H94.443a.985.985,0,1,0,0-1.97Z" transform="translate(-66.019 -26.06)" fill="#4b5563"/><path d="M76,68.413a2.3,2.3,0,0,0,2.3,2.3H120.98a2.3,2.3,0,0,0,2.3-2.3V32.3a2.3,2.3,0,0,0-2.3-2.3H99.04a.985.985,0,1,0,0,1.97h21.94a.329.329,0,0,1,.328.328V68.413a.329.329,0,0,1-.328.328H78.3a.329.329,0,0,1-.328-.328V61.237a.985.985,0,1,0-1.97,0Z" transform="translate(-66.019 -26.06)" fill="#4b5563"/><path d="M66.255,65.27H44.783a2.958,2.958,0,0,1-2.955-2.955V48.591H43.8v13.33A1.38,1.38,0,0,0,45.177,63.3H66.255a.985.985,0,0,0,0-1.97H45.768V53.713h5.778a2.3,2.3,0,0,0,2.3-2.3V48.591h2.43A4.93,4.93,0,0,0,61.2,43.667V24.282a.985.985,0,1,0-1.97,0V43.667a2.958,2.958,0,0,1-2.955,2.955H10.966a2.958,2.958,0,0,1-2.955-2.955V4.925A2.958,2.958,0,0,1,10.966,1.97H56.274a2.958,2.958,0,0,1,2.955,2.955v14.76a.985.985,0,1,0,1.97,0V4.925A4.93,4.93,0,0,0,56.274,0H10.966A4.93,4.93,0,0,0,6.041,4.925V43.667a4.93,4.93,0,0,0,4.925,4.925H13.4v2.824a2.3,2.3,0,0,0,2.3,2.3h5.778V61.33H14.38a.985.985,0,1,0,0,1.97h7.683a1.38,1.38,0,0,0,1.379-1.379V48.591h1.97V62.315a2.958,2.958,0,0,1-2.955,2.955H.985a.985.985,0,1,0,0,1.97H22.457a4.93,4.93,0,0,0,4.925-4.925v-8.6h3.283V66.255a.985.985,0,0,0,1.97,0V48.591H34.6V66.255a.985.985,0,0,0,1.97,0V53.713h3.283v8.6a4.93,4.93,0,0,0,4.925,4.925H66.255a.985.985,0,0,0,0-1.97ZM51.875,51.415a.329.329,0,0,1-.328.328H45.768V48.591h6.107Zm-30.4.328H15.694a.329.329,0,0,1-.328-.328V48.591h6.107Zm9.193,0H27.382V48.591h3.283Zm5.91,0V48.591h3.283v3.152Z" fill="#4b5563"/><path d="M.985,468.97h8.8a.985.985,0,0,0,0-1.97H.985a.985.985,0,0,0,0,1.97Z" transform="translate(0 -405.67)" fill="#4b5563"/><path d="M202.713,137.589h2.7l-1.671,3.864a2.181,2.181,0,0,0,3.746,2.174l6.294-8.387a1.714,1.714,0,0,0-1.371-2.742h-2.7l1.671-3.864a2.181,2.181,0,0,0-3.746-2.175l-6.294,8.387a1.714,1.714,0,0,0,1.371,2.742Zm6.5-9.946a.212.212,0,0,1,.169-.084.211.211,0,0,1,.194.295l-2.266,5.24a.985.985,0,0,0,.9,1.376h3.69l-5.986,7.977a.212.212,0,0,1-.169.084.211.211,0,0,1-.194-.295l2.266-5.24a.985.985,0,0,0-.9-1.376h-3.69Z" transform="translate(-174.601 -109.095)" fill="#4b5563"/><path d="M136.7,102.136h22.766a4.958,4.958,0,0,0,4.265-7.387L152.351,75.033a4.946,4.946,0,0,0-8.53,0L132.438,94.749A4.945,4.945,0,0,0,136.7,102.136Zm-2.559-6.4,11.383-19.716a2.987,2.987,0,0,1,5.118,0l11.383,19.716a2.99,2.99,0,0,1-2.559,4.432H136.7A2.987,2.987,0,0,1,134.143,95.734Z" transform="translate(-114.466 -63.057)" fill="#4b5563"/><path d="M110.137,71.163a.985.985,0,0,0,.985-.985V68.154a4.137,4.137,0,1,0-1.97,0v2.024A.985.985,0,0,0,110.137,71.163Zm-2.167-7.026a2.167,2.167,0,1,1,2.167,2.167A2.169,2.169,0,0,1,107.97,64.137Z" transform="translate(-92.079 -52.12)" fill="#4b5563"/></svg>