<svg xmlns="http://www.w3.org/2000/svg" width="67.449" height="67.729" viewBox="0 0 67.449 67.729"><g transform="translate(-2 -1.721)"><path d="M17,0A17,17,0,0,1,34,17c0,5.577-3.722,13.714-8.125,17-1.418,2.261-5.064,0-8.875,0H7.037S0,22.821,0,17A17,17,0,0,1,17,0Z" transform="translate(18.725 1.721)" fill="#e5e7eb"/><g transform="translate(2 1.996)"><path d="M18.877,11.883a1.124,1.124,0,0,0,1.552-.337A15.726,15.726,0,1,1,44.185,31.693a1.124,1.124,0,1,0,1.5,1.672A17.972,17.972,0,1,0,18.536,10.331,1.124,1.124,0,0,0,18.877,11.883Z" transform="translate(0.031 -1.996)" fill="#4b5563"/><path d="M31.331,28.156a1.112,1.112,0,0,0,.414.079,1.124,1.124,0,0,0,.921-.48l7.869-11.242a1.124,1.124,0,0,0-.921-1.768H33.993V9.124A1.124,1.124,0,0,0,31.934,8.5L25.189,18.618a1.124,1.124,0,0,0,.935,1.748h5.449l-.941,6.585a1.124,1.124,0,0,0,.7,1.205ZM28.225,18.117l3.52-5.284v3.035a1.124,1.124,0,0,0,1.124,1.124h4.587l-3.935,5.621.459-3.208a1.124,1.124,0,0,0-1.111-1.288Z" transform="translate(0.856 -1.25)" fill="#4b5563"/><path d="M68.325,37.784a1.124,1.124,0,0,0,1.124-1.124V34.412a1.124,1.124,0,0,0-1.124-1.124H66.077V29.915a1.124,1.124,0,0,0-1.124-1.124h-4.5a1.124,1.124,0,0,0-1.124,1.124v3.372H57.084a1.124,1.124,0,0,0-1.124,1.124V54.647a1.124,1.124,0,0,0,1.124,1.124h2.248v2.248a1.124,1.124,0,0,1-1.124,1.124H37.973a1.124,1.124,0,0,1-1.124-1.124V56.838a12.366,12.366,0,0,0,10.205-7.362,1.124,1.124,0,1,0-2.059-.9,10.117,10.117,0,0,1-19.321-2.923H48.09a3.358,3.358,0,0,0,2.5-5.621,3.358,3.358,0,0,0-2.5-5.621H41.661l1.9-7.6a1.124,1.124,0,1,0-2.181-.546l-2.036,8.142H32.106L30.07,26.27a1.124,1.124,0,1,0-2.181.546l1.9,7.6H25.607V31.217a1.124,1.124,0,0,0-.374-.837,15.712,15.712,0,0,1-4.548-16.351,1.124,1.124,0,1,0-2.148-.663,17.958,17.958,0,0,0,4.823,18.348v2.7a3.358,3.358,0,0,0-2.5,5.621,3.358,3.358,0,0,0,2.5,5.621h.057A12.377,12.377,0,0,0,34.6,56.838v1.181a3.372,3.372,0,0,0,3.372,3.372H58.208a3.372,3.372,0,0,0,3.372-3.372V55.771h2.248v6.745a3.372,3.372,0,0,1-3.372,3.372H18.862a3.372,3.372,0,0,1-3.372-3.372V61.392h3.372a7.878,7.878,0,0,0,7.869-7.869A1.124,1.124,0,0,0,25.607,52.4h-4.5a7.821,7.821,0,0,0-4.5,1.422V52.4a7.878,7.878,0,0,0-7.869-7.869,1.124,1.124,0,0,0-1.124,1.124v4.5a7.89,7.89,0,0,0,.337,2.265c-.112,0-.225-.017-.337-.017h-4.5A1.124,1.124,0,0,0,2,53.523a7.878,7.878,0,0,0,7.869,7.869h3.372v1.124a5.628,5.628,0,0,0,5.621,5.621H60.456a5.628,5.628,0,0,0,5.621-5.621V55.771h2.248a1.124,1.124,0,0,0,1.124-1.124V41.157a1.124,1.124,0,0,0-1.124-1.124H58.208v-4.5H67.2V36.66A1.124,1.124,0,0,0,68.325,37.784ZM23.359,36.66H48.09a1.124,1.124,0,0,1,0,2.248H23.359a1.124,1.124,0,0,1,0-2.248Zm-1.124,5.621a1.124,1.124,0,0,1,1.124-1.124H48.09a1.124,1.124,0,1,1,0,2.248H23.359A1.124,1.124,0,0,1,22.235,42.281Zm2.136,12.366a5.63,5.63,0,0,1-5.508,4.5H16.628a5.605,5.605,0,0,1,3.359-1.124,1.124,1.124,0,1,0,0-2.248,7.859,7.859,0,0,0-2.821.523,5.583,5.583,0,0,1,3.945-1.647Zm-14.5-4.5V46.89a5.63,5.63,0,0,1,4.5,5.508v.438L13.081,50.7a1.124,1.124,0,1,0-1.927,1.158l1.355,2.258a7.869,7.869,0,0,0-1.839-1.1A5.576,5.576,0,0,1,9.869,50.15Zm-5.508,4.5h3.26a5.583,5.583,0,0,1,3.944,1.647,7.858,7.858,0,0,0-2.819-.523,1.124,1.124,0,0,0,0,2.248A5.605,5.605,0,0,1,12.1,59.143H9.869a5.63,5.63,0,0,1-5.508-4.5ZM67.2,53.523H58.208v-4.5H67.2Zm0-6.745H58.208v-4.5H67.2ZM61.58,33.288V31.04h2.248v2.248Z" transform="translate(-2 -0.683)" fill="#4b5563"/></g></g></svg>