<svg xmlns="http://www.w3.org/2000/svg" xmlns:xlink="http://www.w3.org/1999/xlink" width="104.834" height="105.706" viewBox="0 0 104.834 105.706"><defs><clipPath id="a"><rect width="104.834" height="105.706" fill="none"/></clipPath></defs><g clip-path="url(#a)"><path d="M104.775,25.145l.059-.079a.588.588,0,0,0-.048-.11,58.689,58.689,0,0,0-5.622-6.885,57.208,57.208,0,0,0-5.146-4.793,58.365,58.365,0,0,0-4.826-3.59,61.751,61.751,0,0,0-5.941-3.417A54.761,54.761,0,0,0,72.272,2.04,61.761,61.761,0,0,0,63.657.372C61.641.126,59.62.072,57.6.007c-.8-.026-1.6.03-2.406.057-.983.033-1.965.049-2.947.121a55.421,55.421,0,0,0-9.426,1.58,57.159,57.159,0,0,0-9.187,3.142,77.665,77.665,0,0,0-6.929,3.6,36.456,36.456,0,0,0-3.792,2.534,43.623,43.623,0,0,0-6.676,5.77,69.736,69.736,0,0,0-5.257,6.535,49.642,49.642,0,0,0-3.164,5.112A70.844,70.844,0,0,0,4.145,36.1a55.161,55.161,0,0,0-1.758,5.242,65.758,65.758,0,0,0-1.827,8.7A57.789,57.789,0,0,0,.026,56.09c-.048,1.882-.033,3.766.078,5.652s.31,3.756.575,5.616A56.914,56.914,0,0,0,2.5,75.628,61.383,61.383,0,0,0,6.464,85.687a57.869,57.869,0,0,0,4.168,7.075q1.893,2.719,4.02,5.25a48.263,48.263,0,0,0,4.12,4.377c.779.725,1.549,1.455,2.372,2.13.392.322.771.66,1.193,1.024a.532.532,0,0,0-.168-.379c-.927-1.16-1.8-2.357-2.622-3.594a58.084,58.084,0,0,1-6.683-13.425c-.377-1.1-.8-2.188-1.114-3.305A60.35,60.35,0,0,1,10.08,77.1a51.367,51.367,0,0,1-.607-5.973,60.035,60.035,0,0,1,.034-6.133c.112-1.518.2-3.035.382-4.548a48.986,48.986,0,0,1,1.134-6.322c.138-.544.314-1.08.424-1.63A32.379,32.379,0,0,1,12.8,48.008q.876-2.461,1.954-4.851a57.587,57.587,0,0,1,6.5-11.082,48.329,48.329,0,0,1,7.253-8,66.827,66.827,0,0,1,7.276-5.324A62.071,62.071,0,0,1,41.6,15.594a49.307,49.307,0,0,1,5.005-2.05,57.765,57.765,0,0,1,8.755-2.383q2.217-.418,4.469-.621c1.059-.1,2.115-.242,3.176-.28a34.882,34.882,0,0,1,4.449-.07c.877.081,1.762.068,2.644.122a53.393,53.393,0,0,1,6.262.784c.887.161,1.758.412,2.646.563s1.758.475,2.639.7a42.72,42.72,0,0,1,6.319,2.131A56.46,56.46,0,0,1,93.5,17.133c1.388.791,2.766,1.6,4.107,2.475a52.329,52.329,0,0,1,5.317,3.934c.622.528,1.233,1.069,1.85,1.6M25.631,99.87a9.744,9.744,0,0,0,1.143-1.017c1.583-1.448,3.172-2.888,4.752-4.338s3.181-2.937,4.773-4.4c.324-.3.33-.3.05-.647-.7-.876-1.405-1.743-2.063-2.653a48.945,48.945,0,0,1-3.233-5.136A40.963,40.963,0,0,1,28.7,76.613a49.073,49.073,0,0,1-2.01-6.093,40.934,40.934,0,0,1-1.092-5.888,3.126,3.126,0,0,1-.091-1.074,2.822,2.822,0,0,1,.777-.04q17.148,0,34.3,0c1.467,0,2.933-.006,4.4,0a.91.91,0,0,0,.748-.281c.286-.307.615-.574.929-.854,1.257-1.126,2.506-2.261,3.775-3.373.962-.843,1.872-1.743,2.856-2.564a6.613,6.613,0,0,0,1.177-1.171H26.1c-.141,0-.281,0-.422,0-.223,0-.287-.057-.268-.32a48.073,48.073,0,0,1,.958-6.405,43.371,43.371,0,0,1,2.062-6.827A51.2,51.2,0,0,1,32.7,33.192a43.075,43.075,0,0,1,3.89-5.267,44.352,44.352,0,0,1,3.95-4.122c1.14-1.023,2.279-2.048,3.507-2.967a47.173,47.173,0,0,1,4.728-3.179,49.738,49.738,0,0,1,7.531-3.574,54.255,54.255,0,0,1,6.824-2.028c1.215-.277,2.456-.37,3.677-.593a17.44,17.44,0,0,1,1.79-.194,8.743,8.743,0,0,0,2.018-.278A56.424,56.424,0,0,0,25.631,99.87m10.185-3.151a1.177,1.177,0,0,0,.194.05c2.068,0,4.136,0,6.2.015.288,0,.377-.136.455-.366.39-1.149.79-2.294,1.184-3.434.116-.009.151.07.206.127.347.361.594.812.94,1.162.691.7,1.279,1.484,1.9,2.236a.572.572,0,0,0,.477.268c.4,0,.8,0,1.2,0,.36-.005.8.1,1.059-.064.289-.182.325-.656.446-1.012.414-1.213.777-2.446,1.239-3.64a1.473,1.473,0,0,0-.125-1.494c-.519-.8-.608-.879-1.575-.778-.02,0-.04,0-.06,0-.105.008-.2.034-.212.161-.076.576-.4,1.067-.533,1.634a8.473,8.473,0,0,1-.73,2.118c-.994-1.185-1.97-2.325-2.914-3.492a1.007,1.007,0,0,0-.906-.433c-.923.03-1.847.009-2.77.01-.149,0-.3.013-.464.02a4.475,4.475,0,0,0,.554,1.126.428.428,0,0,1-.11.615c-.831.754-1.639,1.532-2.47,2.285s-1.7,1.486-2.536,2.251c-.207.191-.5.309-.662.635m34.819-6.933c.312.547.555,1,.828,1.44a.754.754,0,0,1,.073.729c-.4,1.131-.771,2.273-1.158,3.41a1,1,0,0,0,.964,1.408c2.571.009,5.143,0,7.714.009.3,0,.408-.1.492-.382.285-.937.6-1.864.914-2.793a4.5,4.5,0,0,0,.348-1.129.806.806,0,0,0-.541-.081c-.623-.007-1.246,0-1.868,0H75.449c-.706,0-.705,0-.907.644-.077.248-.17.492-.234.744-.085.335-.043.4.3.4.784.01,1.567,0,2.35.006a1.507,1.507,0,0,1,.644.048c-.156.73-.156.731-.809.731H73.127c.339-1.019.672-1.964.96-2.922a.547.547,0,0,1,.635-.46c1.687.019,3.375.01,5.062.006a1.26,1.26,0,0,0,.617-.059c-.2-.5-.534-.933-.773-1.41a.593.593,0,0,0-.621-.344c-1.647.014-3.294.007-4.942.007h-3.43m-10.97,6.99c.815,0,1.555-.006,2.3,0,.254,0,.322-.127.4-.347.471-1.423.964-2.839,1.451-4.256.225-.656.115-.575.775-.579.864-.006,1.727,0,2.591,0,.341,0,.683.008,1.024,0,.231-.006.31.1.324.322a1.014,1.014,0,0,1-1.087,1.2c-1.024.008-2.049,0-3.073.006-.145,0-.32-.065-.458.134.268.457.564.908.8,1.387a.568.568,0,0,0,.655.388.7.7,0,0,1,.776.426c.322.569.669,1.125.966,1.707a.667.667,0,0,0,.714.4c.6-.022,1.2,0,1.807-.008.128,0,.281.057.394-.125-.52-1.06-1.219-2.041-1.721-3.149.112-.018.171-.033.23-.036a2.361,2.361,0,0,0,2.174-1.74,2.915,2.915,0,0,0-.4-2.184.949.949,0,0,0-.953-.551c-2.711.026-5.423.012-8.134.015a1,1,0,0,0-.558.065,1.086,1.086,0,0,0,.236.523,5.86,5.86,0,0,1,.428.723.688.688,0,0,1,.053.623q-.416,1.189-.819,2.384c-.293.87-.58,1.742-.889,2.67m-6.013-1.8c.112-.784.112-.784.8-.789h.362q2.018,0,4.037,0c.172,0,.4.083.477-.14a7.592,7.592,0,0,0,.508-1.584,1.4,1.4,0,0,0-.677-.068c-1.386,0-2.772,0-4.157-.007-.164,0-.4.1-.475-.126-.067-.2.073-.39.173-.558.114-.19.328-.108.5-.108,1.727-.005,3.454,0,5.181,0a1.427,1.427,0,0,0,.633-.062c-.269-.464-.549-.9-.778-1.357a.615.615,0,0,0-.645-.4c-2.611.016-5.222.008-7.832.013-.125,0-.284-.07-.381.109a5.576,5.576,0,0,0,.56,1.114.955.955,0,0,1,.07.8c-.485,1.669-1.171,3.271-1.622,4.955.073,0,.153.012.233.012h7.953c.08,0,.161,0,.241,0a.268.268,0,0,0,.313-.212,11.691,11.691,0,0,0,.437-1.588ZM46.942,98.7a4.114,4.114,0,0,0,.525,1.084,1.185,1.185,0,0,1,.109,1.076c-.479,1.36-.923,2.732-1.374,4.1a1.083,1.083,0,0,0-.112.709c.117.007.236.019.355.019q3.856,0,7.711,0c.1,0,.2,0,.3,0a.241.241,0,0,0,.271-.188,9.153,9.153,0,0,0,.408-1.624h-5.89c.129-.78.129-.783.807-.785,1,0,2.008,0,3.012,0,.5,0,1,0,1.506,0,.2,0,.346-.038.417-.256.137-.419.293-.832.443-1.246.062-.171.016-.275-.174-.285-.12-.006-.241,0-.361,0-1.426,0-2.851,0-4.277,0-.169,0-.4.1-.493-.093s.07-.381.149-.559c.1-.221.314-.136.48-.137,1.787-.006,3.574,0,5.361-.006.146,0,.317.066.472-.109-.248-.428-.526-.845-.737-1.292a.641.641,0,0,0-.692-.412c-1.425.019-2.851.008-4.277.007Zm-13.527,6.989c.687,0,1.388-.014,2.088.007a.485.485,0,0,0,.551-.4c.395-1.2.818-2.39,1.223-3.586a4.014,4.014,0,0,0,.395-1.374c-.026-.477-.466-.87-.68-1.321a.525.525,0,0,0-.574-.315c-.743.012-1.486.01-2.229,0a.966.966,0,0,0-.8.312c-.355.378-.769.7-1.153,1.052-1.64,1.5-3.285,3-4.91,4.511a8.2,8.2,0,0,0-1.145,1.12c.914,0,1.736-.04,2.552.012a1.864,1.864,0,0,0,1.7-.64.509.509,0,0,1,.409-.217c.9.005,1.8,0,2.685,0,.067.324-.222.528-.115.841m13.915-5.252c-.264-.458-.532-.858-.732-1.288a.738.738,0,0,0-.8-.458c-2.569.017-5.137.008-7.706.01a.722.722,0,0,0-.475.076,6.855,6.855,0,0,0,.636,1.171.786.786,0,0,1,.093.682c-.378,1.119-.759,2.237-1.123,3.36a14.9,14.9,0,0,0-.549,1.7c.774,0,1.511-.017,2.247.008.311.011.418-.133.5-.389.173-.575.354-1.148.546-1.718.169-.5.177-.5.725-.5,1.465,0,2.93,0,4.395,0,.515,0,.513,0,.67-.475.088-.266.193-.527.273-.8.136-.458.1-.513-.395-.515-1.445,0-2.89,0-4.335-.006-.153,0-.352.074-.45-.077-.123-.19.034-.388.1-.562.091-.246.346-.147.532-.147,1.726-.007,3.452,0,5.178-.006a1.574,1.574,0,0,0,.675-.07M80.121,89.786a.309.309,0,0,0,.02.313c.773,1.333,1.466,2.712,2.308,4a1.1,1.1,0,0,1,.128,1.117,6.118,6.118,0,0,0-.5,1.556c.754,0,1.476-.013,2.2.007a.414.414,0,0,0,.466-.35c.152-.477.345-.942.489-1.42a1.341,1.341,0,0,1,.423-.631c1.522-1.383,3.1-2.7,4.655-4.045a1.632,1.632,0,0,0,.516-.55c-.73,0-1.387,0-2.043,0a.757.757,0,0,0-.524.231,38.088,38.088,0,0,1-3.3,2.778c-.27.2-.295.192-.475-.117-.505-.865-1.017-1.726-1.514-2.6a.466.466,0,0,0-.456-.3c-.8.015-1.6.005-2.391.005" transform="translate(0 -0.001)" fill="#fff"/><path d="M104.776,25.144c-.616-.535-1.228-1.075-1.85-1.6a52.331,52.331,0,0,0-5.317-3.934c-1.341-.876-2.719-1.684-4.107-2.475a56.531,56.531,0,0,0-5.534-2.642,42.721,42.721,0,0,0-6.319-2.131c-.881-.228-1.735-.549-2.639-.7-.888-.151-1.759-.4-2.646-.563a53.385,53.385,0,0,0-6.262-.784c-.881-.054-1.767-.042-2.644-.122a34.884,34.884,0,0,0-4.449.07c-1.061.038-2.117.185-3.176.28q-2.25.2-4.469.621a57.767,57.767,0,0,0-8.755,2.383,49.341,49.341,0,0,0-5.005,2.05,62.1,62.1,0,0,0-5.812,3.158,66.849,66.849,0,0,0-7.276,5.324,48.3,48.3,0,0,0-7.253,8,57.577,57.577,0,0,0-6.5,11.082q-1.076,2.388-1.954,4.851a32.412,32.412,0,0,0-1.357,4.482c-.11.549-.286,1.085-.424,1.629A48.946,48.946,0,0,0,9.89,60.442c-.178,1.513-.27,3.03-.383,4.548a60.035,60.035,0,0,0-.033,6.133,51.375,51.375,0,0,0,.607,5.973,60.347,60.347,0,0,0,1.672,7.743c.317,1.117.737,2.205,1.113,3.305a58.1,58.1,0,0,0,6.683,13.425q1.237,1.856,2.622,3.594a.532.532,0,0,1,.168.379c-.423-.364-.8-.7-1.193-1.024-.823-.675-1.593-1.405-2.372-2.13a48.261,48.261,0,0,1-4.12-4.377q-2.123-2.537-4.02-5.25a57.9,57.9,0,0,1-4.169-7.075A61.334,61.334,0,0,1,2.5,75.627,56.879,56.879,0,0,1,.68,67.357C.414,65.5.216,63.624.1,61.74s-.127-3.77-.078-5.652a57.729,57.729,0,0,1,.534-6.043,65.719,65.719,0,0,1,1.827-8.7A55.078,55.078,0,0,1,4.146,36.1a70.741,70.741,0,0,1,3.667-7.641,49.6,49.6,0,0,1,3.164-5.112,69.729,69.729,0,0,1,5.257-6.535,43.613,43.613,0,0,1,6.676-5.77A36.43,36.43,0,0,1,26.7,8.51a77.636,77.636,0,0,1,6.929-3.6,57.154,57.154,0,0,1,9.187-3.142A55.452,55.452,0,0,1,52.245.185C53.227.113,54.209.1,55.191.064c.8-.027,1.6-.083,2.406-.057,2.023.064,4.044.119,6.059.365a61.794,61.794,0,0,1,8.616,1.668A54.757,54.757,0,0,1,83.253,6.27a61.7,61.7,0,0,1,5.941,3.417,58.416,58.416,0,0,1,4.826,3.59,57.174,57.174,0,0,1,5.146,4.793,58.708,58.708,0,0,1,5.622,6.885.619.619,0,0,1,.048.11l-.059.079" transform="translate(0 0)" fill="#f36822"/><path d="M78.668,137.827a56.424,56.424,0,0,1,44.987-88.881,8.743,8.743,0,0,1-2.018.278,17.441,17.441,0,0,0-1.79.194c-1.221.223-2.462.317-3.677.593a54.256,54.256,0,0,0-6.824,2.028,49.738,49.738,0,0,0-7.531,3.574,47.171,47.171,0,0,0-4.728,3.179c-1.228.92-2.367,1.944-3.507,2.967a44.354,44.354,0,0,0-3.95,4.122,43.076,43.076,0,0,0-3.89,5.267,51.2,51.2,0,0,0-4.271,8.533,43.371,43.371,0,0,0-2.062,6.827,48.072,48.072,0,0,0-.958,6.405c-.019.263.045.323.268.32.141,0,.281,0,.422,0H127.5a6.613,6.613,0,0,1-1.177,1.171c-.984.821-1.894,1.721-2.856,2.564-1.269,1.112-2.518,2.247-3.775,3.373-.313.281-.643.548-.929.854a.91.91,0,0,1-.748.281c-1.467-.011-2.933,0-4.4,0q-17.148,0-34.3,0a2.822,2.822,0,0,0-.777.04,3.126,3.126,0,0,0,.091,1.074,40.934,40.934,0,0,0,1.092,5.888,49.073,49.073,0,0,0,2.01,6.093,40.961,40.961,0,0,0,2.357,5.061,48.943,48.943,0,0,0,3.233,5.136c.658.91,1.365,1.777,2.063,2.653.28.351.275.348-.05.647-1.592,1.467-3.178,2.941-4.773,4.4s-3.17,2.89-4.752,4.338a9.743,9.743,0,0,1-1.143,1.017" transform="translate(-53.036 -37.957)" fill="#4b5563"/><path d="M159.536,406.741c.165-.326.455-.444.662-.635.832-.765,1.7-1.493,2.536-2.251s1.64-1.532,2.47-2.285a.428.428,0,0,0,.11-.615,4.475,4.475,0,0,1-.554-1.126c.165-.008.315-.02.464-.02.924,0,1.848.019,2.77-.01a1.007,1.007,0,0,1,.906.434c.944,1.166,1.92,2.307,2.914,3.492a8.468,8.468,0,0,0,.73-2.118c.128-.566.457-1.057.533-1.634.017-.127.107-.153.212-.161.02,0,.04,0,.06,0,.967-.1,1.056-.022,1.575.779a1.473,1.473,0,0,1,.125,1.494c-.463,1.194-.826,2.426-1.24,3.64-.121.355-.156.83-.446,1.012-.263.165-.7.059-1.059.064-.4.006-.8,0-1.2,0a.572.572,0,0,1-.477-.268c-.626-.752-1.213-1.535-1.9-2.236-.346-.35-.592-.8-.94-1.162-.054-.057-.09-.136-.206-.127-.394,1.139-.794,2.285-1.184,3.434-.078.229-.167.368-.454.366-2.068-.015-4.136-.011-6.2-.014a1.185,1.185,0,0,1-.194-.051" transform="translate(-123.72 -310.023)" fill="#4b5563"/><path d="M313.5,399.9h3.43c1.647,0,3.295.007,4.942-.007a.593.593,0,0,1,.621.344c.239.476.57.9.773,1.41a1.261,1.261,0,0,1-.617.059c-1.687,0-3.375.013-5.062-.006a.547.547,0,0,0-.635.46c-.288.958-.621,1.9-.96,2.922h3.665c.652,0,.652,0,.809-.731a1.507,1.507,0,0,0-.644-.048c-.783-.007-1.567,0-2.35-.006-.342,0-.383-.066-.3-.4.064-.251.157-.5.234-.744.2-.644.2-.644.907-.644h2.953c.623,0,1.246,0,1.868,0a.805.805,0,0,1,.541.081,4.5,4.5,0,0,1-.348,1.129c-.31.929-.629,1.856-.914,2.793-.084.277-.2.383-.492.382-2.571-.011-5.143,0-7.714-.009a1,1,0,0,1-.964-1.408c.386-1.137.755-2.279,1.158-3.41a.754.754,0,0,0-.073-.729c-.274-.437-.517-.893-.828-1.44" transform="translate(-242.863 -310.117)" fill="#4b5563"/><path d="M265.767,406.87c.309-.928.6-1.8.889-2.67q.4-1.194.818-2.384a.688.688,0,0,0-.053-.623,5.9,5.9,0,0,0-.428-.723,1.085,1.085,0,0,1-.236-.523,1,1,0,0,1,.558-.065c2.712,0,5.423.011,8.134-.015a.948.948,0,0,1,.953.551,2.913,2.913,0,0,1,.4,2.184,2.361,2.361,0,0,1-2.174,1.74c-.059,0-.118.018-.23.036.5,1.108,1.2,2.09,1.721,3.15-.113.182-.266.124-.394.125-.6.006-1.206-.014-1.807.008a.667.667,0,0,1-.714-.4c-.3-.582-.643-1.138-.965-1.707a.7.7,0,0,0-.776-.426.568.568,0,0,1-.655-.388c-.238-.479-.534-.929-.8-1.387.138-.2.313-.133.458-.134,1.024-.007,2.049,0,3.073-.006a1.013,1.013,0,0,0,1.087-1.2c-.014-.226-.092-.328-.324-.322-.341.009-.683,0-1.024,0-.864,0-1.728,0-2.591,0-.661,0-.55-.076-.775.579-.487,1.418-.98,2.833-1.451,4.256-.073.22-.141.35-.4.348-.741-.009-1.481,0-2.3,0" transform="translate(-206.101 -310.095)" fill="#4b5563"/><path d="M227.7,405.081h5.911a11.691,11.691,0,0,1-.437,1.588.268.268,0,0,1-.313.212c-.08,0-.161,0-.241,0h-7.953c-.08,0-.16-.008-.233-.012.451-1.684,1.138-3.287,1.622-4.955a.955.955,0,0,0-.069-.8,5.575,5.575,0,0,1-.56-1.114c.1-.179.255-.109.381-.109,2.611,0,5.222,0,7.832-.012a.615.615,0,0,1,.645.4c.229.459.509.893.778,1.357a1.427,1.427,0,0,1-.632.062c-1.727,0-3.454,0-5.182,0-.171,0-.385-.082-.5.108-.1.168-.24.361-.173.558.076.223.311.125.475.126,1.386.008,2.772,0,4.157.007a1.408,1.408,0,0,1,.677.068,7.575,7.575,0,0,1-.508,1.584c-.076.223-.3.14-.477.14q-2.018,0-4.037,0H228.5c-.692.006-.692.006-.8.79" transform="translate(-174.047 -310.106)" fill="#4b5563"/><path d="M206.054,439.592h3.939c1.426,0,2.851.011,4.277-.007a.641.641,0,0,1,.692.412c.211.448.489.864.737,1.292-.155.175-.326.109-.472.109-1.787,0-3.574,0-5.361.006-.167,0-.383-.084-.48.137-.079.178-.237.372-.148.559s.325.092.493.093c1.425.007,2.851,0,4.277,0,.12,0,.241-.007.361,0,.191.01.236.114.174.285-.15.415-.306.828-.443,1.247-.071.218-.221.257-.417.256-.5,0-1,0-1.506,0-1,0-2.008,0-3.012,0-.678,0-.678,0-.807.785h5.891a9.131,9.131,0,0,1-.408,1.624.24.24,0,0,1-.27.188c-.1,0-.2,0-.3,0q-3.855,0-7.71,0c-.119,0-.238-.013-.355-.019a1.083,1.083,0,0,1,.112-.709c.45-1.37.894-2.743,1.374-4.1a1.185,1.185,0,0,0-.109-1.076,4.1,4.1,0,0,1-.525-1.084" transform="translate(-159.112 -340.896)" fill="#f36822"/><path d="M123.861,446.593c-.107-.313.182-.518.115-.841-.889,0-1.787,0-2.685,0a.509.509,0,0,0-.409.217,1.864,1.864,0,0,1-1.7.64c-.816-.052-1.639-.012-2.552-.012a8.248,8.248,0,0,1,1.145-1.12c1.626-1.516,3.271-3.011,4.911-4.511.384-.351.8-.674,1.153-1.051a.966.966,0,0,1,.8-.312c.743.012,1.486.014,2.229,0a.524.524,0,0,1,.574.315c.214.452.654.844.68,1.321a4.013,4.013,0,0,1-.395,1.374c-.405,1.2-.828,2.386-1.223,3.586a.486.486,0,0,1-.551.4c-.7-.021-1.4-.006-2.088-.006m-.654-2.764.041.115c.376,0,.752,0,1.128,0,.121,0,.253-.008.3-.146.181-.536.355-1.074.531-1.612l-.121-.073-1.877,1.717" transform="translate(-90.446 -340.907)" fill="#f36822"/><path d="M174.021,441.324a1.571,1.571,0,0,1-.675.07c-1.726,0-3.452,0-5.178.006-.186,0-.441-.1-.532.147-.064.174-.221.371-.1.562.1.151.3.077.45.077,1.445.005,2.89,0,4.335.006.49,0,.531.057.395.515-.079.268-.184.529-.273.8-.156.47-.155.474-.669.475-1.465,0-2.93,0-4.395,0-.548,0-.556,0-.725.5-.192.569-.373,1.143-.546,1.718-.077.256-.185.4-.5.389-.736-.026-1.473-.009-2.247-.009a14.92,14.92,0,0,1,.549-1.7c.363-1.124.744-2.241,1.123-3.36a.786.786,0,0,0-.093-.682,6.852,6.852,0,0,1-.636-1.171.722.722,0,0,1,.475-.076c2.569,0,5.138.007,7.706-.01a.737.737,0,0,1,.8.458c.2.431.467.83.732,1.288" transform="translate(-126.69 -340.891)" fill="#f36822"/><path d="M356.77,399.907c.79,0,1.591.009,2.391-.005a.466.466,0,0,1,.456.3c.5.87,1.008,1.731,1.514,2.6.181.309.2.317.475.117a38.086,38.086,0,0,0,3.3-2.778.757.757,0,0,1,.524-.231c.656,0,1.313,0,2.043,0a1.632,1.632,0,0,1-.516.55c-1.554,1.346-3.133,2.662-4.655,4.045a1.34,1.34,0,0,0-.423.631c-.144.479-.337.943-.489,1.42a.414.414,0,0,1-.466.35c-.721-.02-1.443-.007-2.2-.007a6.115,6.115,0,0,1,.5-1.556,1.1,1.1,0,0,0-.128-1.117c-.841-1.292-1.535-2.671-2.308-4a.309.309,0,0,1-.02-.313" transform="translate(-276.649 -310.122)" fill="#4b5563"/><path d="M145.928,452.508l1.877-1.717.121.073c-.176.537-.35,1.076-.531,1.612-.046.138-.178.145-.3.146-.376,0-.752,0-1.128,0l-.041-.115" transform="translate(-113.167 -349.587)" fill="#fff"/></g></svg>