<svg xmlns="http://www.w3.org/2000/svg" width="67.412" height="65.687" viewBox="0 0 67.412 65.687"><g transform="translate(0 -6.547)"><rect width="37" height="30" transform="translate(3.706 19.939)" fill="#e5e7eb"/><path d="M66.424,70.26h-1.7l-3.96-35.308.6,0a.987.987,0,0,0,0-1.975h0l-1.8.008V29.427h1.2a.987.987,0,1,0,0-1.975h-1.2V26.12h.016a.987.987,0,0,0,0-1.975H59.55v-.3a.987.987,0,1,0-1.975,0v.3h-.016a.987.987,0,1,0,0,1.975h.016v1.332h-1.2a.987.987,0,1,0,0,1.975h1.2v3.565l-5.8.027V29.427h1.2a.987.987,0,0,0,0-1.975h-1.2V26.12h.016a.987.987,0,0,0,0-1.975H51.77v-.3a.987.987,0,1,0-1.975,0v.3h-.016a.987.987,0,1,0,0,1.975H49.8v1.332h-1.2a.987.987,0,0,0,0,1.975h1.2v3.6l-1.812.008a.987.987,0,0,0,0,1.975h0l.579,0-.6,5.386a5.094,5.094,0,0,0-4.012.19,5.566,5.566,0,0,0-2.551,2.9c-.145.293-.262.518-.363.689V19.439a.987.987,0,0,0-.987-.987H36.5V7.534a.987.987,0,0,0-.987-.987h-4.4a.987.987,0,1,0,0,1.975h3.417v9.929H9.623V8.522h17.54a.987.987,0,0,0,0-1.975H8.636a.987.987,0,0,0-.987.987V18.451H4.1a.987.987,0,0,0-.987.987V48.814H2.317A1.491,1.491,0,0,0,.827,50.3v2.471a1.491,1.491,0,0,0,1.49,1.49h.792v16H.987a.987.987,0,0,0,0,1.975H66.424a.987.987,0,1,0,0-1.975Zm-19.818,0,.939-8.369,12.883,4.193L51.3,70.26Zm3.163-28.2v0l.141-1.261,8.446,3.822L49.05,48.469ZM62.1,64.551,49.893,60.578l11.317-3.947ZM60.893,53.8l-10.22-3.866,9.352-3.87ZM48.731,51.311l10.426,3.944L47.846,59.2ZM62.412,67.348l.327,2.912H56.046Zm-2.725-24.3L51.2,39.213l6.986-4.249.592,0Zm-5.33-8.07-4.073,2.477L50.561,35ZM5.083,20.426H39.068V48.814H5.083ZM2.8,50.789H41.349v1.5H2.8Zm12.17,12.088h6.116V70.26H14.972Zm8.091,7.382V62.878h6.116V70.26Zm8.091,0V62.878h.119a.987.987,0,1,0,0-1.975H12.878a.987.987,0,1,0,0,1.975H13V70.26H5.083v-16H39.068v5.652a.987.987,0,0,0,1.975,0V54.264h.792a1.491,1.491,0,0,0,1.49-1.49V50.3a1.491,1.491,0,0,0-1.49-1.49h-.792V46.585c1.172-.285,1.714-1.379,2.134-2.228a3.739,3.739,0,0,1,1.618-1.983,3.229,3.229,0,0,1,2.944.073L44.619,70.26H41.043v-6.4a.987.987,0,1,0-1.975,0v6.4Z" fill="#4b5563"/><path d="M93.251,37.2a.987.987,0,0,0,1.376-.24l2.464-3.505a.987.987,0,0,0-.808-1.555h-1.1l.562-.765a.987.987,0,1,0-1.592-1.169l-1.717,2.337a.987.987,0,0,0,.8,1.572h1.151l-1.371,1.95a.987.987,0,0,0,.24,1.376Z" transform="translate(-80.099 -19.989)" fill="#4b5563"/><path d="M157.2,36.007h-9.96a.987.987,0,0,0,0,1.975h9.96a.987.987,0,0,0,0-1.975Z" transform="translate(-126.993 -25.581)" fill="#4b5563"/><path d="M157.2,67.5h-9.96a.987.987,0,0,0,0,1.975h9.96a.987.987,0,0,0,0-1.975Z" transform="translate(-126.993 -52.929)" fill="#4b5563"/><path d="M67.866,232.792H63.745a1.317,1.317,0,0,0-1.316,1.316v7.656a1.317,1.317,0,0,0,1.316,1.316h4.121a1.317,1.317,0,0,0,1.316-1.316v-7.656A1.317,1.317,0,0,0,67.866,232.792Zm-.659,8.313H64.4v-6.338h2.8Z" transform="translate(-54.209 -196.457)" fill="#4b5563"/><path d="M227.056,232.792h-4.121a1.317,1.317,0,0,0-1.316,1.316v7.656a1.317,1.317,0,0,0,1.316,1.316h4.121a1.317,1.317,0,0,0,1.316-1.316v-7.656A1.317,1.317,0,0,0,227.056,232.792Zm-.659,8.313h-2.8v-6.338h2.8Z" transform="translate(-192.44 -196.457)" fill="#4b5563"/><path d="M67.866,128.6H63.745a1.317,1.317,0,0,0-1.316,1.316v7.656a1.317,1.317,0,0,0,1.316,1.316h4.121a1.317,1.317,0,0,0,1.316-1.316v-7.656A1.317,1.317,0,0,0,67.866,128.6Zm-.659,8.313H64.4v-6.338h2.8Z" transform="translate(-54.209 -105.983)" fill="#4b5563"/><path d="M147.46,128.6h-4.121a1.317,1.317,0,0,0-1.316,1.316v7.656a1.317,1.317,0,0,0,1.316,1.316h4.121a1.317,1.317,0,0,0,1.316-1.316v-7.656A1.317,1.317,0,0,0,147.46,128.6Zm-.659,8.313H144v-6.338h2.8Z" transform="translate(-123.324 -105.983)" fill="#4b5563"/><path d="M227.056,128.6h-4.121a1.317,1.317,0,0,0-1.316,1.316v7.656a1.317,1.317,0,0,0,1.316,1.316h4.121a1.317,1.317,0,0,0,1.316-1.316v-7.656A1.317,1.317,0,0,0,227.056,128.6Zm-.659,8.313h-2.8v-6.338h2.8Z" transform="translate(-192.44 -105.983)" fill="#4b5563"/><path d="M147.461,232.792H143.34a1.317,1.317,0,0,0-1.316,1.316v2.4a.987.987,0,0,0,1.975,0v-1.74h2.8v6.338H144v-.65a.987.987,0,1,0-1.975,0v1.309a1.317,1.317,0,0,0,1.316,1.316h4.121a1.317,1.317,0,0,0,1.316-1.316v-7.656A1.317,1.317,0,0,0,147.461,232.792Z" transform="translate(-123.325 -196.457)" fill="#4b5563"/></g></svg>