<svg xmlns="http://www.w3.org/2000/svg" width="69.743" height="69.737" viewBox="0 0 69.743 69.737"><g transform="translate(-2 -2.006)"><path d="M0,0H17V31L3.825,28.8,5.8,22.349l-4.345-1.58Z" transform="translate(11.872 12.877)" fill="#e5e7eb"/><path d="M70.162,41.79a1.072,1.072,0,0,0,.418.081,1.162,1.162,0,0,0,1.162-1.162V33.735A1.15,1.15,0,0,0,71,32.654l-24.41-9.3a1.155,1.155,0,0,0-.837,0L34.547,27.621V10.487A3.5,3.5,0,0,0,31.06,7H10.137A3.5,3.5,0,0,0,6.65,10.487v9.078l-4.405,11A3.546,3.546,0,0,0,2,31.863V43.813A5.9,5.9,0,0,0,3.162,47.3l.767,1.023A5.8,5.8,0,0,1,5,52.821L3.174,69.641a1.133,1.133,0,0,0,.291.907,1.162,1.162,0,0,0,.86.384H17.111a1.14,1.14,0,0,0,.872-.4,1.125,1.125,0,0,0,.279-.907L16.1,51.891a1.18,1.18,0,0,1,.174-.86l.686-1.023h8.288V63.957H21.761A1.162,1.162,0,0,0,20.6,65.119v4.65a1.162,1.162,0,0,0,1.162,1.162h48.82a1.162,1.162,0,0,0,1.162-1.162v-4.65a1.162,1.162,0,0,0-1.162-1.162H67.094V40.628ZM34.547,46.521V37.083l11.624-4.429,18.6,7.091V63.957H42.684V48.846a1.162,1.162,0,0,0-1.162-1.162H34.338a3.487,3.487,0,0,0,.209-1.162ZM33.384,58.145h2.325V55.82H33.384V50.008h6.974V63.957H33.384ZM13.961,41.534l.628.616a4.65,4.65,0,0,1,1.36,3.29v.488a4.641,4.641,0,0,1-.779,2.58l-.825,1.232a3.417,3.417,0,0,0-.546,2.5l2,16.366H5.627L7.3,53.147a8.137,8.137,0,0,0-1.511-6.219l-.767-1.023a3.508,3.508,0,0,1-.7-2.092V31.863a1.146,1.146,0,0,1,.081-.442l2.243-5.6v7.439A2.3,2.3,0,0,0,7.335,34.9l1.337,1.337a2.325,2.325,0,0,0,2.836.36l3.627-2.185a.953.953,0,0,1,1.3,1.3l-2.65,4.405a1.179,1.179,0,0,0,.174,1.418Zm2.453-.825c-.058-.058-.1-.128-.163-.174l2.174-3.627a3.269,3.269,0,0,0-4.487-4.487l-.314.186V13.974H27.572V40.709Zm1.616,6.974a6.876,6.876,0,0,0,.244-1.755V45.44a7,7,0,0,0-.43-2.406H28.735A1.162,1.162,0,0,0,29.9,41.872V12.812a1.162,1.162,0,0,0-1.162-1.162H12.461A1.162,1.162,0,0,0,11.3,12.812V34l-.976.593L8.974,33.258V10.487a1.162,1.162,0,0,1,1.162-1.162H31.06a1.162,1.162,0,0,1,1.162,1.162V46.521a1.162,1.162,0,0,1-1.162,1.162Zm13.03,2.325V63.957H27.572V50.008ZM69.418,66.282v2.325h-46.5V66.282ZM46.589,30.329a1.155,1.155,0,0,0-.837,0L34.547,34.6V30.108L46.171,25.68l23.248,8.857v4.487Z" transform="translate(0 0.811)" fill="#4b5563"/><path d="M18.65,17a4.65,4.65,0,1,0,4.65,4.65A4.65,4.65,0,0,0,18.65,17Zm0,6.974a2.325,2.325,0,1,1,2.325-2.325A2.325,2.325,0,0,1,18.65,23.974Z" transform="translate(1.949 2.435)" fill="#4b5563"/><path d="M44.681,14.681a2.325,2.325,0,1,0,3.287,0A2.325,2.325,0,0,0,44.681,14.681Z" transform="translate(6.82 1.948)" fill="#4b5563"/><path d="M51.62,12.042a6.974,6.974,0,0,0-9.862,0L43.4,13.686a4.766,4.766,0,0,1,6.574,0Z" transform="translate(6.456 1.298)" fill="#4b5563"/><path d="M55.367,9.4a11.624,11.624,0,0,0-16.438,0l1.644,1.644a9.3,9.3,0,0,1,13.151,0Z" transform="translate(5.997 0.649)" fill="#4b5563"/><path d="M57.47,8.41l1.645-1.645a16.292,16.292,0,0,0-23.015,0l1.644,1.644a13.965,13.965,0,0,1,19.727,0Z" transform="translate(5.537 0)" fill="#4b5563"/><path d="M42,43.162v9.3a1.162,1.162,0,0,0,1.162,1.162H54.786a1.162,1.162,0,0,0,1.162-1.162v-9.3A1.162,1.162,0,0,0,54.786,42H43.162A1.162,1.162,0,0,0,42,43.162Zm2.325,1.162h9.3V51.3h-9.3Z" transform="translate(6.495 6.495)" fill="#4b5563"/><path d="M36,36.65A4.65,4.65,0,1,0,40.65,32,4.65,4.65,0,0,0,36,36.65Zm6.974,0a2.325,2.325,0,1,1-2.325-2.325A2.325,2.325,0,0,1,42.974,36.65Z" transform="translate(5.521 4.871)" fill="#4b5563"/></g></svg>