<svg xmlns="http://www.w3.org/2000/svg" width="16.907" height="16.183" viewBox="0 0 16.907 16.183"><path d="M36.541,5.408l-4.617-.673L29.86.55a1.012,1.012,0,0,0-1.814,0L25.983,4.734l-4.617.673a1.012,1.012,0,0,0-.559,1.726l3.34,3.255-.79,4.6a1.011,1.011,0,0,0,1.466,1.065l4.13-2.171,4.13,2.171a1.011,1.011,0,0,0,1.466-1.065l-.79-4.6L37.1,7.133a1.012,1.012,0,0,0-.559-1.726Zm-3.865,4.627.879,5.12-4.6-2.414-4.6,2.418.879-5.12L21.511,6.406l5.142-.746L28.953,1l2.3,4.661,5.142.746-3.72,3.628Z" transform="translate(-20.5 0.013)" fill="#d1d5db"/></svg>