<svg xmlns="http://www.w3.org/2000/svg" width="67.354" height="67.42" viewBox="0 0 67.354 67.42"><g transform="translate(-0.25)"><circle cx="9" cy="9" r="9" transform="translate(25.25 24.71)" fill="#e5e7eb"/><path d="M212.345,21.727h9.618a4.938,4.938,0,1,0,0-5.925h-9.618a4.979,4.979,0,0,0-1.051-1.032v-3.4l3.532-3.532h7.089a4.938,4.938,0,1,0,.1-5.926H213.6a2.943,2.943,0,0,0-2.1.868l-5.267,5.267a2.943,2.943,0,0,0-.868,2.1v4.729a5,5,0,0,0-1.707,5.291l-3.8,5.092a8.888,8.888,0,1,0-.043,16.933l3.834,5.1a4.926,4.926,0,0,0,1.713,5.271V57.28a2.943,2.943,0,0,0,.868,2.1l5.267,5.267a2.943,2.943,0,0,0,2.1.868h8.416a4.938,4.938,0,1,0-.1-5.926h-7.089l-3.532-3.532v-3.4a4.982,4.982,0,0,0,1.051-1.032h9.618a4.938,4.938,0,1,0,0-5.925h-9.618a4.933,4.933,0,0,0-3.948-1.975h-.007l-3.841-5.107a8.861,8.861,0,0,0,.968-1.938h16.445a4.938,4.938,0,1,0,0-5.925h-5.735a.988.988,0,1,0,0,1.975h4.844a5.169,5.169,0,0,0,0,1.975h-15.1a9.129,9.129,0,0,0,0-1.975h5.521a.988.988,0,1,0,0-1.975h-5.974a8.859,8.859,0,0,0-.943-1.9l3.837-5.146a4.934,4.934,0,0,0,3.934-1.975ZM225.91,15.8a2.963,2.963,0,1,1-2.963,2.963A2.966,2.966,0,0,1,225.91,15.8Zm-12.675,1.975h7.836a5.169,5.169,0,0,0,0,1.975h-7.836a4.955,4.955,0,0,0,0-1.975Zm12.675-15.8a2.963,2.963,0,1,1-2.963,2.963A2.966,2.966,0,0,1,225.91,1.975Zm0,57.544a2.963,2.963,0,1,1-2.963,2.963A2.966,2.966,0,0,1,225.91,59.519Zm0-13.826a2.963,2.963,0,1,1-2.963,2.963A2.966,2.966,0,0,1,225.91,45.693Zm-12.675,1.975h7.836a5.169,5.169,0,0,0,0,1.975h-7.836A5.169,5.169,0,0,0,213.236,47.668ZM225.91,30.747a2.963,2.963,0,1,1-2.963,2.963A2.966,2.966,0,0,1,225.91,30.747ZM207.344,10.139a.981.981,0,0,1,.289-.7L212.9,4.174a.981.981,0,0,1,.7-.289h7.488a4.9,4.9,0,0,0-.027,1.975h-6.643a.987.987,0,0,0-.7.289l-4.11,4.11a.987.987,0,0,0-.289.7v2.956a5.1,5.1,0,0,0-1.975.027ZM197.138,40.623a6.913,6.913,0,1,1,6.913-6.913A6.921,6.921,0,0,1,197.138,40.623Zm16.58,20.648a.987.987,0,0,0,.7.289h6.643a5.1,5.1,0,0,0,.027,1.975H213.6a.981.981,0,0,1-.7-.289l-5.267-5.267a.981.981,0,0,1-.289-.7v-3.8a5.174,5.174,0,0,0,1.975.027v2.956a.987.987,0,0,0,.289.7ZM208.4,45.693a2.963,2.963,0,1,1-2.963,2.963A2.966,2.966,0,0,1,208.4,45.693Zm-2.119-1.5a4.965,4.965,0,0,0-1.577,1.189l-3.033-4.032a8.938,8.938,0,0,0,1.575-1.192Zm-3-16.908a8.943,8.943,0,0,0-1.569-1.2l3.01-4.037a4.962,4.962,0,0,0,1.582,1.182Zm2.161-8.523a2.963,2.963,0,1,1,2.963,2.963A2.966,2.966,0,0,1,205.434,18.764Z" transform="translate(-163.244)" fill="#4b5563"/><path d="M31.524,65.445H30.232a1.661,1.661,0,0,1-1.659-1.659V60.935a3.626,3.626,0,0,0-2.49-3.449,24.994,24.994,0,0,1-3.359-1.392,3.628,3.628,0,0,0-4.2.674L16.5,58.785a1.66,1.66,0,0,1-2.347,0L8.884,53.514a1.663,1.663,0,0,1,0-2.347L10.9,49.15a3.628,3.628,0,0,0,.674-4.2,24.98,24.98,0,0,1-1.392-3.359A3.626,3.626,0,0,0,6.735,39.1H3.884a1.661,1.661,0,0,1-1.659-1.659V29.982a1.661,1.661,0,0,1,1.659-1.659H6.735a3.626,3.626,0,0,0,3.449-2.49,24.994,24.994,0,0,1,1.392-3.359,3.628,3.628,0,0,0-.674-4.2L8.884,16.253a1.664,1.664,0,0,1,0-2.347l5.272-5.272a1.663,1.663,0,0,1,2.347,0l2.018,2.019a3.628,3.628,0,0,0,4.2.674,24.963,24.963,0,0,1,3.359-1.392,3.626,3.626,0,0,0,2.491-3.449V3.634a1.661,1.661,0,0,1,1.659-1.659h7.324A1.667,1.667,0,0,1,39.2,3.387a.321.321,0,0,1-.02.163l-1,2.589a.988.988,0,1,0,1.842.712l1-2.589A2.3,2.3,0,0,0,41.151,3.1,3.654,3.654,0,0,0,37.556,0H30.232A3.638,3.638,0,0,0,26.6,3.634V6.485a1.654,1.654,0,0,1-1.136,1.574,26.981,26.981,0,0,0-3.626,1.5,1.656,1.656,0,0,1-1.919-.306L17.9,7.236a3.642,3.642,0,0,0-5.14,0L7.486,12.51a3.642,3.642,0,0,0,0,5.14l2.018,2.017a1.657,1.657,0,0,1,.306,1.919,26.979,26.979,0,0,0-1.5,3.626,1.654,1.654,0,0,1-1.573,1.136H3.884A3.638,3.638,0,0,0,.25,29.982v7.456a3.638,3.638,0,0,0,3.634,3.634H6.735a1.654,1.654,0,0,1,1.574,1.136,26.981,26.981,0,0,0,1.5,3.626,1.656,1.656,0,0,1-.306,1.919L7.486,49.771a3.642,3.642,0,0,0,0,5.14l5.272,5.271a3.639,3.639,0,0,0,5.14,0l2.017-2.017a1.656,1.656,0,0,1,1.919-.306,26.98,26.98,0,0,0,3.626,1.5A1.654,1.654,0,0,1,26.6,60.935v2.851a3.638,3.638,0,0,0,3.634,3.634h1.292a.988.988,0,1,0,0-1.975Z" transform="translate(0 0)" fill="#4b5563"/><path d="M121.093,112.481a2.305,2.305,0,0,0-2.009-1.474,12.707,12.707,0,0,1,0-25.368,2.306,2.306,0,0,0,2.007-1.468l3.225-8.34a.988.988,0,1,0-1.842-.712l-1.053,2.722c-.519-.039-1.045-.06-1.566-.06A20.631,20.631,0,0,0,99.25,98.39a20.4,20.4,0,0,0,4.376,12.7.988.988,0,1,0,1.555-1.218,18.446,18.446,0,0,1-3.956-11.48,18.654,18.654,0,0,1,18.633-18.633c.272,0,.545.006.818.018l-1.425,3.685a.326.326,0,0,1-.283.209,14.683,14.683,0,0,0,0,29.311.326.326,0,0,1,.284.21L120.712,117a18.615,18.615,0,0,1-12.438-4.018.988.988,0,0,0-1.229,1.546,20.525,20.525,0,0,0,14.409,4.406l3.687,9.613a.324.324,0,0,1,.02.162,1.667,1.667,0,0,1-1.641,1.412H122.1a.988.988,0,0,0,0,1.975h1.423a3.654,3.654,0,0,0,3.595-3.1,2.3,2.3,0,0,0-.13-1.16Z" transform="translate(-85.964 -64.68)" fill="#4b5563"/></g></svg>