<svg xmlns="http://www.w3.org/2000/svg" width="67.81" height="67.81" viewBox="0 0 67.81 67.81"><g transform="translate(-1 -1)"><path d="M11.508,32.972a1.093,1.093,0,0,1,0-1.547L9.961,29.878a3.282,3.282,0,0,0,0,4.642Z" transform="translate(0.75 2.706)" fill="#4b5563"/><path d="M7.243,37.878,8.79,36.331a5.468,5.468,0,0,1,0-7.735L7.243,27.05a7.655,7.655,0,0,0,0,10.828Z" transform="translate(0.375 2.441)" fill="#4b5563"/><path d="M6.07,39.689a9.856,9.856,0,0,1,0-13.922L4.523,24.221a12.045,12.045,0,0,0,0,17.015Z" transform="translate(0 2.176)" fill="#4b5563"/><path d="M54.254,17.59a3.285,3.285,0,0,0,0-4.641L52.707,14.5a1.1,1.1,0,0,1,0,1.548Z" transform="translate(4.846 1.12)" fill="#4b5563"/><path d="M57.082,20.949a7.655,7.655,0,0,0,0-10.828l-1.547,1.547a5.467,5.467,0,0,1,0,7.734Z" transform="translate(5.111 0.855)" fill="#4b5563"/><path d="M58.364,22.76l1.547,1.547a12.044,12.044,0,0,0,0-17.014L58.364,8.84a9.855,9.855,0,0,1,0,13.921Z" transform="translate(5.376 0.59)" fill="#4b5563"/><path d="M0,0,8-2.1V64H0Z" transform="translate(30.905 3.905)" fill="#e5e7eb"/><path d="M62.7,66.623,54.428,58.35a7.591,7.591,0,0,0,.164-1.571V50.217a7.665,7.665,0,0,0-7.656-7.656,3.285,3.285,0,0,0-3.281,3.281v1.4l-.252.084L39.28,43.2V21.111l4.375,1.458v1.4a3.285,3.285,0,0,0,3.281,3.281,7.665,7.665,0,0,0,7.656-7.656V13.031a7.665,7.665,0,0,0-7.656-7.656,3.285,3.285,0,0,0-3.281,3.281v1.4L39.28,11.513V1h-2.4L30.53,3.541V30.107l-4.375-1.458v-1.4a3.285,3.285,0,0,0-3.281-3.281,7.665,7.665,0,0,0-7.656,7.656v6.562a7.665,7.665,0,0,0,7.656,7.656,3.285,3.285,0,0,0,3.281-3.281v-1.4L30.53,39.7v3.5L7.109,66.623H1V68.81H68.81V66.623Zm-3.093,0H39.28V58.3l4.375,1.458v1.4a3.285,3.285,0,0,0,3.281,3.281,7.652,7.652,0,0,0,6.633-3.851ZM45.842,54.592H52.4v2.187a5.475,5.475,0,0,1-5.469,5.469,1.1,1.1,0,0,1-1.094-1.094Zm-2.187-5.044v7.9L39.28,55.992V51.007Zm3.281-4.8A5.475,5.475,0,0,1,52.4,50.217V52.4H45.842V45.842A1.1,1.1,0,0,1,46.936,44.749ZM41.083,48.1l-1.8.6V46.3Zm5.852-23.037a1.1,1.1,0,0,1-1.094-1.094V17.406H52.4v2.187A5.475,5.475,0,0,1,46.936,25.062Zm0-17.5A5.475,5.475,0,0,1,52.4,13.031v2.187H45.842V8.656A1.1,1.1,0,0,1,46.936,7.562Zm-3.281,4.8v7.9L39.28,18.806V13.821Zm-6.562-9.09V66.623H32.718V5.022ZM22.874,26.155a1.1,1.1,0,0,1,1.094,1.094v6.562H17.406V31.624A5.475,5.475,0,0,1,22.874,26.155Zm0,17.5a5.475,5.475,0,0,1-5.469-5.469V36h6.562v6.562A1.1,1.1,0,0,1,22.874,43.655Zm3.281-4.8v-7.9l4.375,1.458V37.4ZM30.53,46.3V66.623H10.2Z" transform="translate(0 0)" fill="#4b5563"/></g></svg>