<svg xmlns="http://www.w3.org/2000/svg" width="119.746" height="34.046" viewBox="0 0 119.746 34.046"><g transform="translate(-43.436 -32.198)"><g transform="translate(107.382 38.38)"><path d="M569.6,86.757a5.276,5.276,0,0,1-7.444,0L561.1,85.718l9.132-9.132a5.276,5.276,0,0,1,7.444,0l1.053,1.039c-4.862,4.862-4.285,4.27-9.132,9.132Z" transform="translate(-550.367 -75.05)" fill="#f97316" fill-rule="evenodd"/><path d="M495.183,86.757a5.277,5.277,0,0,1-7.444,0L486.7,85.718c4.862-4.862,4.27-4.285,9.132-9.132a5.276,5.276,0,0,1,7.444,0l1.039,1.039-9.132,9.132Z" transform="translate(-486.7 -75.05)" fill="#f97316" fill-rule="evenodd"/><path d="M644.783,86.757a5.277,5.277,0,0,1-7.444,0L636.3,85.718c4.862-4.862,4.27-4.285,9.132-9.132a5.277,5.277,0,0,1,7.444,0l1.039,1.039c-4.847,4.862-4.27,4.27-9.132,9.132Z" transform="translate(-614.718 -75.05)" fill="#f97316" fill-rule="evenodd"/></g><path d="M677.73,171.8a3.12,3.12,0,0,0,5.107,0,6.231,6.231,0,1,1-5.107,0Z" transform="translate(-540.111 -119.463)" fill="#4b5563" fill-rule="evenodd"/><path d="M638.613,183.686H637.2l-.736-2.539-.75,2.539H634.3l1.486-4.386h1.342Z" transform="translate(-505.625 -125.881)" fill="#4b5563" fill-rule="evenodd"/><path d="M610.62,183.686h-1.255l-.981-1.847h.029v1.847H607.1V179.3h1.313v1.688h-.029l.981-1.688h1.255l-1.039,2.193Z" transform="translate(-482.349 -125.881)" fill="#4b5563" fill-rule="evenodd"/><rect width="1.284" height="4.386" transform="translate(123.092 53.419)" fill="#4b5563"/><path d="M570.347,183.666h-1.1v-3.26c0-.144-.144-.231-.231-.274a1.233,1.233,0,0,0-.4-.043.71.71,0,0,0-.289.043c-.13.058-.115.144-.115.274v3.26H567v-4.386h2.164c.346,0,.664-.043.866.188a.933.933,0,0,1,.317.707Z" transform="translate(-448.033 -125.862)" fill="#4b5563" fill-rule="evenodd"/><path d="M536.813,183.686H535.4l-.75-2.539-.736,2.539H532.5l1.486-4.386h1.342Z" transform="translate(-418.51 -125.881)" fill="#4b5563" fill-rule="evenodd"/><path d="M508.968,181.939c.274-.058.476-.375.62-.649a1.715,1.715,0,0,0,.159-.765.28.28,0,0,0-.014-.115c0-.793-.462-1.01-1.356-1.01H506.4v4.386h1.01v-1.861h.115l.967,1.861h1.255Zm-.563-1.284c-.043.043-.087.159-.13.159h-.866v-.2A5.564,5.564,0,0,1,508.405,180.655Z" transform="translate(-396.176 -125.966)" fill="#4b5563" fill-rule="evenodd"/><rect width="1.01" height="4.386" transform="translate(108.536 53.419)" fill="#4b5563"/><path d="M463.613,179.3l-1.486,4.386h-1.342L459.3,179.3h1.414l.75,2.525.736-2.525Z" transform="translate(-355.87 -125.881)" fill="#4b5563" fill-rule="evenodd"/><g transform="translate(63.628 32.198)"><path d="M779.5,71.866h0a7.865,7.865,0,1,0-15-3.3,7.8,7.8,0,0,0,1.991,5.222l4.342-4.241a1.466,1.466,0,0,1,.1-1.976,1.446,1.446,0,0,1,2.063,0,1.463,1.463,0,0,1,0,2.077l-5.323,5.208-1.63,1.63a5.277,5.277,0,0,0,0,7.444l1.1,1.039,10.935-10.877v-.014a7.553,7.553,0,0,0,1.486-2.193Z" transform="translate(-680.67 -56.588)" fill="#4b5563" fill-rule="evenodd"/><path d="M362.4,101.2h0a8.3,8.3,0,0,1-3.39.721,7.862,7.862,0,1,1-.058-15.725,7.8,7.8,0,0,1,5.222,1.991l-4.241,4.342a1.466,1.466,0,0,0-1.976.1,1.446,1.446,0,0,0,0,2.063,1.463,1.463,0,0,0,2.077,0l5.208-5.323,1.616-1.63a5.276,5.276,0,0,1,7.444,0l1.053,1.039L364.473,99.66l-.014.014a7.729,7.729,0,0,1-2.121,1.529Z" transform="translate(-326.907 -78.41)" fill="#4b5563" fill-rule="evenodd"/><path d="M484.531,33.6a3.13,3.13,0,1,1-3.13,3.13,3.128,3.128,0,0,1,3.13-3.13Z" transform="translate(-438.41 -33.398)" fill="#4b5563" fill-rule="evenodd"/><path d="M307.216,32.343l-9.637-.144a5.121,5.121,0,0,0-5.179,5.179v1.6h20.932a5.369,5.369,0,0,0,5.338-5.323V32.343H307.216Z" transform="translate(-276.675 -32.198)" fill="#4b5563" fill-rule="evenodd"/><path d="M287.63,171.8a3.1,3.1,0,0,1,2.553,1.327,3.13,3.13,0,1,1,0,3.607,3.129,3.129,0,1,1-2.553-4.934Z" transform="translate(-269.915 -151.661)" fill="#4b5563" fill-rule="evenodd"/><path d="M184.121,74.309h0a7.866,7.866,0,0,0,13.229,8.281l3.506-3.52h0l6.492-6.492-.606-.606a5.276,5.276,0,0,0-7.444,0l-2.784,2.784h0l-3.794,3.837a1.464,1.464,0,0,1-2.077-2.063c5.554-5.511,1.587-1.471,7.141-7.011l-1.039-1.039a5.278,5.278,0,0,0-7.444.1c-4.386,4.414.779-.563-3.607,3.722h-.014A5.92,5.92,0,0,0,184.15,74.4Z" transform="translate(-183.4 -61.974)" fill="#4b5563" fill-rule="evenodd"/></g><path d="M140.9,109.2c.577.1,1.111.216,1.572.317-.548-.058-1.068-.1-1.572-.159a.582.582,0,0,0,0-.159Z" transform="translate(-83.403 -65.893)" fill="#4b5563" fill-rule="evenodd"/><path d="M374.076,221.4a3.376,3.376,0,1,0,3.376,3.376,3.371,3.371,0,0,0-3.376-3.376Z" transform="translate(-280.052 -161.907)" fill="#4b5563" fill-rule="evenodd"/><path d="M376.3,224a3,3,0,0,0-1.976,5.251,2.914,2.914,0,0,1-.678-1.89,2.973,2.973,0,0,1,5.193-1.976A3.054,3.054,0,0,0,376.3,224Z" transform="translate(-282.277 -164.132)" fill="#4b5563" fill-rule="evenodd"/><path d="M145.04,176.2a4.14,4.14,0,1,0,4.14,4.14,4.14,4.14,0,0,0-4.14-4.14Z" transform="translate(-83.403 -123.228)" fill="#4b5563" fill-rule="evenodd"/><path d="M147.864,179.5a3.669,3.669,0,0,0-3.664,3.664,3.709,3.709,0,0,0,1.255,2.77,3.627,3.627,0,0,1,2.8-5.944,3.617,3.617,0,0,1,2.7,1.212,3.63,3.63,0,0,0-3.087-1.7Z" transform="translate(-86.227 -126.052)" fill="#4b5563" fill-rule="evenodd"/><path d="M367.3,200.2a21.261,21.261,0,0,1,2.871,2.525,4.122,4.122,0,0,0-1.039.418,12.816,12.816,0,0,0-1.832-2.337V200.2Z" transform="translate(-277.143 -143.766)" fill="#4b5563" fill-rule="evenodd"/><path d="M222.993,219.576c-.3.029-.606.043-.938.043a55.948,55.948,0,0,1-11.454-1.673,130.456,130.456,0,0,1-13.286-3.924H197.3a5.976,5.976,0,0,0,.88-2.222h.188c8.555,3.3,18.61,5.77,23.284,5.136a4.088,4.088,0,0,0,1.169,2.51,1.806,1.806,0,0,1,.173.13Z" transform="translate(-131.667 -153.692)" fill="#4b5563" fill-rule="evenodd"/><path d="M56.775,118a44.7,44.7,0,0,1-12.089-8.208c-1.659-1.717-1.948-3.621.88-4.732a14.061,14.061,0,0,1,4.9-.664,2.945,2.945,0,0,0-.115.62,4.947,4.947,0,0,0-2.683.765C44.8,108.1,49.981,112.113,57.7,115.922A4.772,4.772,0,0,0,56.775,118Z" transform="translate(0 -61.781)" fill="#4b5563" fill-rule="evenodd"/><path d="M97.775,88.2a3.275,3.275,0,1,0,3.275,3.275A3.272,3.272,0,0,0,97.775,88.2Z" transform="translate(-43.697 -47.923)" fill="#4b5563" fill-rule="evenodd"/><path d="M100,90.7a2.894,2.894,0,0,0-1.9,5.078,2.87,2.87,0,0,1,4.342-3.751A2.894,2.894,0,0,0,100,90.7Z" transform="translate(-45.922 -50.062)" fill="#4b5563" fill-rule="evenodd"/></g></svg>